<?xml version="1.0" encoding="utf-8" standalone="no"?>
<!DOCTYPE svg PUBLIC "-//W3C//DTD SVG 1.1//EN"
  "http://www.w3.org/Graphics/SVG/1.1/DTD/svg11.dtd">
<svg xmlns:xlink="http://www.w3.org/1999/xlink" width="739.4675pt" height="381.558pt" viewBox="0 0 739.4675 381.558" xmlns="http://www.w3.org/2000/svg" version="1.1">
 <metadata>
  <rdf:RDF xmlns:dc="http://purl.org/dc/elements/1.1/" xmlns:cc="http://creativecommons.org/ns#" xmlns:rdf="http://www.w3.org/1999/02/22-rdf-syntax-ns#">
   <cc:Work>
    <dc:type rdf:resource="http://purl.org/dc/dcmitype/StillImage"/>
    <dc:date>2024-05-21T02:27:19.783906</dc:date>
    <dc:format>image/svg+xml</dc:format>
    <dc:creator>
     <cc:Agent>
      <dc:title>Matplotlib v3.7.0, https://matplotlib.org/</dc:title>
     </cc:Agent>
    </dc:creator>
   </cc:Work>
  </rdf:RDF>
 </metadata>
 <defs>
  <style type="text/css">*{stroke-linejoin: round; stroke-linecap: butt}</style>
 </defs>
 <g id="figure_1">
  <g id="patch_1">
   <path d="M 0 381.558 
L 739.4675 381.558 
L 739.4675 0 
L 0 0 
L 0 381.558 
z
" style="fill: none"/>
  </g>
  <g id="axes_1">
   <g id="patch_2">
    <path d="M 62.6675 303.348 
L 732.2675 303.348 
L 732.2675 26.148 
L 62.6675 26.148 
L 62.6675 303.348 
z
" style="fill: none"/>
   </g>
   <g id="axes_2">
    <g id="patch_3">
     <path d="M 62.6675 303.348 
L 732.2675 303.348 
L 732.2675 303.348 
L 62.6675 303.348 
z
" style="fill: #ffffff"/>
    </g>
    <g id="matplotlib.axis_1">
     <g id="xtick_1">
      <g id="line2d_1">
       <defs>
        <path id="m83b1e65319" d="M 0 0 
L 0 50 
" style="stroke: #808080; stroke-width: 0.5"/>
       </defs>
       <g>
        <use xlink:href="#m83b1e65319" x="146.3675" y="303.348" style="fill: #808080; stroke: #808080; stroke-width: 0.5"/>
       </g>
      </g>
     </g>
     <g id="xtick_2">
      <g id="line2d_2">
       <g>
        <use xlink:href="#m83b1e65319" x="481.1675" y="303.348" style="fill: #808080; stroke: #808080; stroke-width: 0.5"/>
       </g>
      </g>
     </g>
     <g id="xtick_3">
      <g id="line2d_3">
       <g>
        <use xlink:href="#m83b1e65319" x="648.5675" y="303.348" style="fill: #808080; stroke: #808080; stroke-width: 0.5"/>
       </g>
      </g>
     </g>
    </g>
    <g id="matplotlib.axis_2"/>
    <g id="patch_4">
     <path d="M 62.6675 303.348 
L 732.2675 303.348 
" style="fill: none; stroke: #000000; stroke-width: 0.8; stroke-linejoin: miter; stroke-linecap: square"/>
    </g>
   </g>
   <g id="axes_3">
    <g id="patch_5">
     <path d="M 62.6675 303.348 
L 732.2675 303.348 
L 732.2675 303.348 
L 62.6675 303.348 
z
" style="fill: #ffffff"/>
    </g>
    <g id="matplotlib.axis_3">
     <g id="xtick_4">
      <g id="line2d_4"/>
      <g id="text_1">
       <!--  -->
       <g transform="translate(104.5175 319.0905) scale(0.16 -0.16)"/>
       <!--  -->
       <g transform="translate(104.5175 337.109) scale(0.16 -0.16)"/>
       <!-- OpenAI -->
       <g transform="translate(75.62 355.1275) scale(0.16 -0.16)">
        <defs>
         <path id="DejaVuSansMono-4f" d="M 2828 2328 
Q 2828 3356 2617 3797 
Q 2406 4238 1925 4238 
Q 1447 4238 1236 3797 
Q 1025 3356 1025 2328 
Q 1025 1303 1236 862 
Q 1447 422 1925 422 
Q 2406 422 2617 861 
Q 2828 1300 2828 2328 
z
M 3488 2328 
Q 3488 1109 3102 509 
Q 2716 -91 1925 -91 
Q 1134 -91 750 506 
Q 366 1103 366 2328 
Q 366 3550 752 4150 
Q 1138 4750 1925 4750 
Q 2716 4750 3102 4150 
Q 3488 3550 3488 2328 
z
" transform="scale(0.015625)"/>
         <path id="DejaVuSansMono-70" d="M 1172 441 
L 1172 -1331 
L 594 -1331 
L 594 3500 
L 1172 3500 
L 1172 3053 
Q 1316 3313 1555 3448 
Q 1794 3584 2106 3584 
Q 2741 3584 3102 3093 
Q 3463 2603 3463 1734 
Q 3463 881 3100 395 
Q 2738 -91 2106 -91 
Q 1788 -91 1548 45 
Q 1309 181 1172 441 
z
M 2859 1747 
Q 2859 2416 2648 2756 
Q 2438 3097 2022 3097 
Q 1603 3097 1387 2755 
Q 1172 2413 1172 1747 
Q 1172 1084 1387 740 
Q 1603 397 2022 397 
Q 2438 397 2648 737 
Q 2859 1078 2859 1747 
z
" transform="scale(0.015625)"/>
         <path id="DejaVuSansMono-65" d="M 3475 1894 
L 3475 1613 
L 984 1613 
L 984 1594 
Q 984 1022 1282 709 
Q 1581 397 2125 397 
Q 2400 397 2700 484 
Q 3000 572 3341 750 
L 3341 178 
Q 3013 44 2708 -23 
Q 2403 -91 2119 -91 
Q 1303 -91 843 398 
Q 384 888 384 1747 
Q 384 2584 834 3084 
Q 1284 3584 2034 3584 
Q 2703 3584 3089 3131 
Q 3475 2678 3475 1894 
z
M 2900 2063 
Q 2888 2569 2661 2833 
Q 2434 3097 2009 3097 
Q 1594 3097 1325 2822 
Q 1056 2547 1006 2059 
L 2900 2063 
z
" transform="scale(0.015625)"/>
         <path id="DejaVuSansMono-6e" d="M 3284 2169 
L 3284 0 
L 2706 0 
L 2706 2169 
Q 2706 2641 2540 2862 
Q 2375 3084 2022 3084 
Q 1619 3084 1401 2798 
Q 1184 2513 1184 1978 
L 1184 0 
L 609 0 
L 609 3500 
L 1184 3500 
L 1184 2975 
Q 1338 3275 1600 3429 
Q 1863 3584 2222 3584 
Q 2756 3584 3020 3232 
Q 3284 2881 3284 2169 
z
" transform="scale(0.015625)"/>
         <path id="DejaVuSansMono-41" d="M 1925 4109 
L 1259 1722 
L 2591 1722 
L 1925 4109 
z
M 1544 4666 
L 2309 4666 
L 3738 0 
L 3084 0 
L 2741 1216 
L 1106 1216 
L 769 0 
L 116 0 
L 1544 4666 
z
" transform="scale(0.015625)"/>
         <path id="DejaVuSansMono-49" d="M 628 4666 
L 3219 4666 
L 3219 4134 
L 2241 4134 
L 2241 531 
L 3219 531 
L 3219 0 
L 628 0 
L 628 531 
L 1606 531 
L 1606 4134 
L 628 4134 
L 628 4666 
z
" transform="scale(0.015625)"/>
        </defs>
        <use xlink:href="#DejaVuSansMono-4f"/>
        <use xlink:href="#DejaVuSansMono-70" x="60.205078"/>
        <use xlink:href="#DejaVuSansMono-65" x="120.410156"/>
        <use xlink:href="#DejaVuSansMono-6e" x="180.615234"/>
        <use xlink:href="#DejaVuSansMono-41" x="240.820312"/>
        <use xlink:href="#DejaVuSansMono-49" x="301.025391"/>
       </g>
      </g>
     </g>
     <g id="xtick_5">
      <g id="line2d_5"/>
      <g id="text_2">
       <!--  -->
       <g transform="translate(313.7675 319.0905) scale(0.16 -0.16)"/>
       <!--  -->
       <g transform="translate(313.7675 337.109) scale(0.16 -0.16)"/>
       <!-- Llama 2 -->
       <g transform="translate(280.05375 355.1275) scale(0.16 -0.16)">
        <defs>
         <path id="DejaVuSansMono-4c" d="M 672 4666 
L 1306 4666 
L 1306 531 
L 3559 531 
L 3559 0 
L 672 0 
L 672 4666 
z
" transform="scale(0.015625)"/>
         <path id="DejaVuSansMono-6c" d="M 1997 1269 
Q 1997 881 2139 684 
Q 2281 488 2559 488 
L 3231 488 
L 3231 0 
L 2503 0 
Q 1988 0 1705 331 
Q 1422 663 1422 1269 
L 1422 4447 
L 500 4447 
L 500 4897 
L 1997 4897 
L 1997 1269 
z
" transform="scale(0.015625)"/>
         <path id="DejaVuSansMono-61" d="M 2194 1759 
L 2003 1759 
Q 1500 1759 1245 1582 
Q 991 1406 991 1056 
Q 991 741 1181 566 
Q 1372 391 1709 391 
Q 2184 391 2456 720 
Q 2728 1050 2731 1631 
L 2731 1759 
L 2194 1759 
z
M 3309 1997 
L 3309 0 
L 2731 0 
L 2731 519 
Q 2547 206 2267 57 
Q 1988 -91 1588 -91 
Q 1053 -91 734 211 
Q 416 513 416 1019 
Q 416 1603 808 1906 
Q 1200 2209 1959 2209 
L 2731 2209 
L 2731 2300 
Q 2728 2719 2518 2908 
Q 2309 3097 1850 3097 
Q 1556 3097 1256 3012 
Q 956 2928 672 2766 
L 672 3341 
Q 991 3463 1283 3523 
Q 1575 3584 1850 3584 
Q 2284 3584 2592 3456 
Q 2900 3328 3091 3072 
Q 3209 2916 3259 2686 
Q 3309 2456 3309 1997 
z
" transform="scale(0.015625)"/>
         <path id="DejaVuSansMono-6d" d="M 2113 3144 
Q 2219 3369 2383 3476 
Q 2547 3584 2778 3584 
Q 3200 3584 3373 3257 
Q 3547 2931 3547 2028 
L 3547 0 
L 3022 0 
L 3022 2003 
Q 3022 2744 2939 2923 
Q 2856 3103 2638 3103 
Q 2388 3103 2295 2911 
Q 2203 2719 2203 2003 
L 2203 0 
L 1678 0 
L 1678 2003 
Q 1678 2753 1589 2928 
Q 1500 3103 1269 3103 
Q 1041 3103 952 2911 
Q 863 2719 863 2003 
L 863 0 
L 341 0 
L 341 3500 
L 863 3500 
L 863 3200 
Q 966 3388 1120 3486 
Q 1275 3584 1472 3584 
Q 1709 3584 1867 3475 
Q 2025 3366 2113 3144 
z
" transform="scale(0.015625)"/>
         <path id="DejaVuSansMono-20" transform="scale(0.015625)"/>
         <path id="DejaVuSansMono-32" d="M 1166 531 
L 3309 531 
L 3309 0 
L 475 0 
L 475 531 
Q 1059 1147 1496 1619 
Q 1934 2091 2100 2284 
Q 2413 2666 2522 2902 
Q 2631 3138 2631 3384 
Q 2631 3775 2401 3997 
Q 2172 4219 1772 4219 
Q 1488 4219 1175 4116 
Q 863 4013 513 3803 
L 513 4441 
Q 834 4594 1145 4672 
Q 1456 4750 1759 4750 
Q 2444 4750 2861 4386 
Q 3278 4022 3278 3431 
Q 3278 3131 3139 2831 
Q 3000 2531 2688 2169 
Q 2513 1966 2180 1606 
Q 1847 1247 1166 531 
z
" transform="scale(0.015625)"/>
        </defs>
        <use xlink:href="#DejaVuSansMono-4c"/>
        <use xlink:href="#DejaVuSansMono-6c" x="60.205078"/>
        <use xlink:href="#DejaVuSansMono-61" x="120.410156"/>
        <use xlink:href="#DejaVuSansMono-6d" x="180.615234"/>
        <use xlink:href="#DejaVuSansMono-61" x="240.820312"/>
        <use xlink:href="#DejaVuSansMono-20" x="301.025391"/>
        <use xlink:href="#DejaVuSansMono-32" x="361.230469"/>
       </g>
      </g>
     </g>
     <g id="xtick_6">
      <g id="line2d_6"/>
      <g id="text_3">
       <!--  -->
       <g transform="translate(564.8675 319.0905) scale(0.16 -0.16)"/>
       <!--  -->
       <g transform="translate(564.8675 337.109) scale(0.16 -0.16)"/>
       <!-- Llama 3 -->
       <g transform="translate(531.15375 355.1275) scale(0.16 -0.16)">
        <defs>
         <path id="DejaVuSansMono-33" d="M 2425 2497 
Q 2884 2375 3128 2064 
Q 3372 1753 3372 1288 
Q 3372 644 2939 276 
Q 2506 -91 1741 -91 
Q 1419 -91 1084 -31 
Q 750 28 428 141 
L 428 769 
Q 747 603 1056 522 
Q 1366 441 1672 441 
Q 2191 441 2469 675 
Q 2747 909 2747 1350 
Q 2747 1756 2469 1995 
Q 2191 2234 1716 2234 
L 1234 2234 
L 1234 2753 
L 1716 2753 
Q 2150 2753 2394 2943 
Q 2638 3134 2638 3475 
Q 2638 3834 2411 4026 
Q 2184 4219 1766 4219 
Q 1488 4219 1191 4156 
Q 894 4094 569 3969 
L 569 4550 
Q 947 4650 1242 4700 
Q 1538 4750 1766 4750 
Q 2447 4750 2855 4408 
Q 3263 4066 3263 3500 
Q 3263 3116 3048 2859 
Q 2834 2603 2425 2497 
z
" transform="scale(0.015625)"/>
        </defs>
        <use xlink:href="#DejaVuSansMono-4c"/>
        <use xlink:href="#DejaVuSansMono-6c" x="60.205078"/>
        <use xlink:href="#DejaVuSansMono-61" x="120.410156"/>
        <use xlink:href="#DejaVuSansMono-6d" x="180.615234"/>
        <use xlink:href="#DejaVuSansMono-61" x="240.820312"/>
        <use xlink:href="#DejaVuSansMono-20" x="301.025391"/>
        <use xlink:href="#DejaVuSansMono-33" x="361.230469"/>
       </g>
      </g>
     </g>
     <g id="xtick_7">
      <g id="line2d_7"/>
      <g id="text_4">
       <!--  -->
       <g transform="translate(690.4175 319.0905) scale(0.16 -0.16)"/>
       <!--  -->
       <g transform="translate(690.4175 337.109) scale(0.16 -0.16)"/>
       <!-- Mistral -->
       <g transform="translate(656.70375 355.1275) scale(0.16 -0.16)">
        <defs>
         <path id="DejaVuSansMono-4d" d="M 269 4666 
L 1113 4666 
L 1919 2291 
L 2731 4666 
L 3578 4666 
L 3578 0 
L 2994 0 
L 2994 4122 
L 2163 1663 
L 1684 1663 
L 850 4122 
L 850 0 
L 269 0 
L 269 4666 
z
" transform="scale(0.015625)"/>
         <path id="DejaVuSansMono-69" d="M 800 3500 
L 2272 3500 
L 2272 447 
L 3413 447 
L 3413 0 
L 556 0 
L 556 447 
L 1697 447 
L 1697 3053 
L 800 3053 
L 800 3500 
z
M 1697 4863 
L 2272 4863 
L 2272 4134 
L 1697 4134 
L 1697 4863 
z
" transform="scale(0.015625)"/>
         <path id="DejaVuSansMono-73" d="M 3041 3378 
L 3041 2816 
Q 2794 2959 2544 3031 
Q 2294 3103 2034 3103 
Q 1644 3103 1451 2976 
Q 1259 2850 1259 2591 
Q 1259 2356 1403 2240 
Q 1547 2125 2119 2016 
L 2350 1972 
Q 2778 1891 2998 1647 
Q 3219 1403 3219 1013 
Q 3219 494 2850 201 
Q 2481 -91 1825 -91 
Q 1566 -91 1281 -36 
Q 997 19 666 128 
L 666 722 
Q 988 556 1281 473 
Q 1575 391 1838 391 
Q 2219 391 2428 545 
Q 2638 700 2638 978 
Q 2638 1378 1872 1531 
L 1847 1538 
L 1631 1581 
Q 1134 1678 906 1908 
Q 678 2138 678 2534 
Q 678 3038 1018 3311 
Q 1359 3584 1991 3584 
Q 2272 3584 2531 3532 
Q 2791 3481 3041 3378 
z
" transform="scale(0.015625)"/>
         <path id="DejaVuSansMono-74" d="M 1919 4494 
L 1919 3500 
L 3225 3500 
L 3225 3053 
L 1919 3053 
L 1919 1153 
Q 1919 766 2066 612 
Q 2213 459 2578 459 
L 3225 459 
L 3225 0 
L 2522 0 
Q 1875 0 1609 259 
Q 1344 519 1344 1153 
L 1344 3053 
L 409 3053 
L 409 3500 
L 1344 3500 
L 1344 4494 
L 1919 4494 
z
" transform="scale(0.015625)"/>
         <path id="DejaVuSansMono-72" d="M 3609 2778 
Q 3425 2922 3234 2987 
Q 3044 3053 2816 3053 
Q 2278 3053 1993 2715 
Q 1709 2378 1709 1741 
L 1709 0 
L 1131 0 
L 1131 3500 
L 1709 3500 
L 1709 2816 
Q 1853 3188 2151 3386 
Q 2450 3584 2859 3584 
Q 3072 3584 3256 3531 
Q 3441 3478 3609 3366 
L 3609 2778 
z
" transform="scale(0.015625)"/>
        </defs>
        <use xlink:href="#DejaVuSansMono-4d"/>
        <use xlink:href="#DejaVuSansMono-69" x="60.205078"/>
        <use xlink:href="#DejaVuSansMono-73" x="120.410156"/>
        <use xlink:href="#DejaVuSansMono-74" x="180.615234"/>
        <use xlink:href="#DejaVuSansMono-72" x="240.820312"/>
        <use xlink:href="#DejaVuSansMono-61" x="301.025391"/>
        <use xlink:href="#DejaVuSansMono-6c" x="361.230469"/>
       </g>
      </g>
     </g>
    </g>
    <g id="matplotlib.axis_4"/>
    <g id="patch_6">
     <path d="M 62.6675 303.348 
L 732.2675 303.348 
" style="fill: none; stroke: #000000; stroke-width: 0.8; stroke-linejoin: miter; stroke-linecap: square"/>
    </g>
   </g>
   <g id="patch_7">
    <path d="M 71.0375 303.348 
L 93.3575 303.348 
L 93.3575 194.755946 
L 71.0375 194.755946 
z
" clip-path="url(#p20747fc89e)" style="fill: #3274a1"/>
   </g>
   <g id="patch_8">
    <path d="M 154.7375 303.348 
L 177.0575 303.348 
L 177.0575 161.347384 
L 154.7375 161.347384 
z
" clip-path="url(#p20747fc89e)" style="fill: #3274a1"/>
   </g>
   <g id="patch_9">
    <path d="M 238.4375 303.348 
L 260.7575 303.348 
L 260.7575 49.511228 
L 238.4375 49.511228 
z
" clip-path="url(#p20747fc89e)" style="fill: #3274a1"/>
   </g>
   <g id="patch_10">
    <path d="M 322.1375 303.348 
L 344.4575 303.348 
L 344.4575 130.613784 
L 322.1375 130.613784 
z
" clip-path="url(#p20747fc89e)" style="fill: #3274a1"/>
   </g>
   <g id="patch_11">
    <path d="M 405.8375 303.348 
L 428.1575 303.348 
L 428.1575 40.234233 
L 405.8375 40.234233 
z
" clip-path="url(#p20747fc89e)" style="fill: #3274a1"/>
   </g>
   <g id="patch_12">
    <path d="M 489.5375 303.348 
L 511.8575 303.348 
L 511.8575 129.077104 
L 489.5375 129.077104 
z
" clip-path="url(#p20747fc89e)" style="fill: #3274a1"/>
   </g>
   <g id="patch_13">
    <path d="M 573.2375 303.348 
L 595.5575 303.348 
L 595.5575 11.54954 
L 573.2375 11.54954 
z
" clip-path="url(#p20747fc89e)" style="fill: #3274a1"/>
   </g>
   <g id="patch_14">
    <path d="M 656.9375 303.348 
L 679.2575 303.348 
L 679.2575 76.943812 
L 656.9375 76.943812 
z
" clip-path="url(#p20747fc89e)" style="fill: #3274a1"/>
   </g>
   <g id="patch_15">
    <path d="M 93.3575 303.348 
L 115.6775 303.348 
L 115.6775 195.495829 
L 93.3575 195.495829 
z
" clip-path="url(#p20747fc89e)" style="fill: #40923a"/>
   </g>
   <g id="patch_16">
    <path d="M 177.0575 303.348 
L 199.3775 303.348 
L 199.3775 135.565308 
L 177.0575 135.565308 
z
" clip-path="url(#p20747fc89e)" style="fill: #40923a"/>
   </g>
   <g id="patch_17">
    <path d="M 260.7575 303.348 
L 283.0775 303.348 
L 283.0775 82.407563 
L 260.7575 82.407563 
z
" clip-path="url(#p20747fc89e)" style="fill: #40923a"/>
   </g>
   <g id="patch_18">
    <path d="M 344.4575 303.348 
L 366.7775 303.348 
L 366.7775 107.165185 
L 344.4575 107.165185 
z
" clip-path="url(#p20747fc89e)" style="fill: #40923a"/>
   </g>
   <g id="patch_19">
    <path d="M 428.1575 303.348 
L 450.4775 303.348 
L 450.4775 49.112829 
L 428.1575 49.112829 
z
" clip-path="url(#p20747fc89e)" style="fill: #40923a"/>
   </g>
   <g id="patch_20">
    <path d="M 511.8575 303.348 
L 534.1775 303.348 
L 534.1775 155.42832 
L 511.8575 155.42832 
z
" clip-path="url(#p20747fc89e)" style="fill: #40923a"/>
   </g>
   <g id="patch_21">
    <path d="M 595.5575 303.348 
L 617.8775 303.348 
L 617.8775 126.572885 
L 595.5575 126.572885 
z
" clip-path="url(#p20747fc89e)" style="fill: #40923a"/>
   </g>
   <g id="patch_22">
    <path d="M 679.2575 303.348 
L 701.5775 303.348 
L 701.5775 111.718311 
L 679.2575 111.718311 
z
" clip-path="url(#p20747fc89e)" style="fill: #40923a"/>
   </g>
   <g id="patch_23">
    <path d="M 115.6775 303.348 
L 137.9975 303.348 
L 137.9975 194.016063 
L 115.6775 194.016063 
z
" clip-path="url(#p20747fc89e)" style="fill: #aeccdb"/>
   </g>
   <g id="patch_24">
    <path d="M 199.3775 303.348 
L 221.6975 303.348 
L 221.6975 162.201095 
L 199.3775 162.201095 
z
" clip-path="url(#p20747fc89e)" style="fill: #aeccdb"/>
   </g>
   <g id="patch_25">
    <path d="M 283.0775 303.348 
L 305.3975 303.348 
L 305.3975 50.649509 
L 283.0775 50.649509 
z
" clip-path="url(#p20747fc89e)" style="fill: #aeccdb"/>
   </g>
   <g id="patch_26">
    <path d="M 366.7775 303.348 
L 389.0975 303.348 
L 389.0975 128.05265 
L 366.7775 128.05265 
z
" clip-path="url(#p20747fc89e)" style="fill: #aeccdb"/>
   </g>
   <g id="patch_27">
    <path d="M 450.4775 303.348 
L 472.7975 303.348 
L 472.7975 38.299155 
L 450.4775 38.299155 
z
" clip-path="url(#p20747fc89e)" style="fill: #aeccdb"/>
   </g>
   <g id="patch_28">
    <path d="M 534.1775 303.348 
L 556.4975 303.348 
L 556.4975 128.166479 
L 534.1775 128.166479 
z
" clip-path="url(#p20747fc89e)" style="fill: #aeccdb"/>
   </g>
   <g id="patch_29">
    <path d="M 617.8775 303.348 
L 640.1975 303.348 
L 640.1975 12.744735 
L 617.8775 12.744735 
z
" clip-path="url(#p20747fc89e)" style="fill: #aeccdb"/>
   </g>
   <g id="patch_30">
    <path d="M 701.5775 303.348 
L 723.8975 303.348 
L 723.8975 79.504945 
L 701.5775 79.504945 
z
" clip-path="url(#p20747fc89e)" style="fill: #aeccdb"/>
   </g>
   <g id="patch_31">
    <path d="M 104.5175 303.348 
L 104.5175 303.348 
L 104.5175 303.348 
L 104.5175 303.348 
z
" clip-path="url(#p20747fc89e)" style="fill: #3274a1"/>
   </g>
   <g id="patch_32">
    <path d="M 104.5175 303.348 
L 104.5175 303.348 
L 104.5175 303.348 
L 104.5175 303.348 
z
" clip-path="url(#p20747fc89e)" style="fill: #40923a"/>
   </g>
   <g id="patch_33">
    <path d="M 104.5175 303.348 
L 104.5175 303.348 
L 104.5175 303.348 
L 104.5175 303.348 
z
" clip-path="url(#p20747fc89e)" style="fill: #aeccdb"/>
   </g>
   <g id="matplotlib.axis_5">
    <g id="xtick_8">
     <g id="text_5">
      <!-- GPT-2 -->
      <g transform="translate(80.43625 322.5905) scale(0.16 -0.16)">
       <defs>
        <path id="DejaVuSansMono-47" d="M 3450 384 
Q 3197 150 2880 29 
Q 2563 -91 2194 -91 
Q 1306 -91 812 545 
Q 319 1181 319 2328 
Q 319 3472 819 4111 
Q 1319 4750 2209 4750 
Q 2503 4750 2772 4667 
Q 3041 4584 3291 4416 
L 3291 3769 
Q 3038 4009 2772 4123 
Q 2506 4238 2209 4238 
Q 1594 4238 1286 3761 
Q 978 3284 978 2328 
Q 978 1356 1276 889 
Q 1575 422 2194 422 
Q 2403 422 2561 470 
Q 2719 519 2847 622 
L 2847 1875 
L 2169 1875 
L 2169 2394 
L 3450 2394 
L 3450 384 
z
" transform="scale(0.015625)"/>
        <path id="DejaVuSansMono-50" d="M 1247 4147 
L 1247 2394 
L 1978 2394 
Q 2416 2394 2661 2625 
Q 2906 2856 2906 3272 
Q 2906 3688 2662 3917 
Q 2419 4147 1978 4147 
L 1247 4147 
z
M 616 4666 
L 1978 4666 
Q 2759 4666 3162 4311 
Q 3566 3956 3566 3272 
Q 3566 2581 3164 2228 
Q 2763 1875 1978 1875 
L 1247 1875 
L 1247 0 
L 616 0 
L 616 4666 
z
" transform="scale(0.015625)"/>
        <path id="DejaVuSansMono-54" d="M 147 4666 
L 3706 4666 
L 3706 4134 
L 2247 4134 
L 2247 0 
L 1613 0 
L 1613 4134 
L 147 4134 
L 147 4666 
z
" transform="scale(0.015625)"/>
        <path id="DejaVuSansMono-2d" d="M 1113 2009 
L 2741 2009 
L 2741 1497 
L 1113 1497 
L 1113 2009 
z
" transform="scale(0.015625)"/>
       </defs>
       <use xlink:href="#DejaVuSansMono-47"/>
       <use xlink:href="#DejaVuSansMono-50" x="60.205078"/>
       <use xlink:href="#DejaVuSansMono-54" x="120.410156"/>
       <use xlink:href="#DejaVuSansMono-2d" x="180.615234"/>
       <use xlink:href="#DejaVuSansMono-32" x="240.820312"/>
      </g>
     </g>
    </g>
    <g id="xtick_9">
     <g id="text_6">
      <!-- 7B -->
      <g transform="translate(178.585 322.5905) scale(0.16 -0.16)">
       <defs>
        <path id="DejaVuSansMono-37" d="M 434 4666 
L 3372 4666 
L 3372 4397 
L 1703 0 
L 1044 0 
L 2669 4134 
L 434 4134 
L 434 4666 
z
" transform="scale(0.015625)"/>
        <path id="DejaVuSansMono-42" d="M 1153 2228 
L 1153 519 
L 1900 519 
Q 2450 519 2684 711 
Q 2919 903 2919 1344 
Q 2919 1800 2672 2014 
Q 2425 2228 1900 2228 
L 1153 2228 
z
M 1153 4147 
L 1153 2741 
L 1888 2741 
Q 2344 2741 2548 2916 
Q 2753 3091 2753 3481 
Q 2753 3834 2551 3990 
Q 2350 4147 1888 4147 
L 1153 4147 
z
M 519 4666 
L 1900 4666 
Q 2616 4666 3003 4356 
Q 3391 4047 3391 3481 
Q 3391 3053 3186 2806 
Q 2981 2559 2572 2497 
Q 3031 2428 3292 2104 
Q 3553 1781 3553 1281 
Q 3553 647 3137 323 
Q 2722 0 1900 0 
L 519 0 
L 519 4666 
z
" transform="scale(0.015625)"/>
       </defs>
       <use xlink:href="#DejaVuSansMono-37"/>
       <use xlink:href="#DejaVuSansMono-42" x="60.205078"/>
      </g>
     </g>
    </g>
    <g id="xtick_10">
     <g id="text_7">
      <!-- 7B Chat -->
      <g transform="translate(238.20375 322.5905) scale(0.16 -0.16)">
       <defs>
        <path id="DejaVuSansMono-43" d="M 3353 166 
Q 3113 38 2859 -26 
Q 2606 -91 2322 -91 
Q 1425 -91 929 543 
Q 434 1178 434 2328 
Q 434 3472 932 4111 
Q 1431 4750 2322 4750 
Q 2606 4750 2859 4686 
Q 3113 4622 3353 4494 
L 3353 3847 
Q 3122 4038 2856 4138 
Q 2591 4238 2322 4238 
Q 1706 4238 1400 3763 
Q 1094 3288 1094 2328 
Q 1094 1372 1400 897 
Q 1706 422 2322 422 
Q 2597 422 2861 522 
Q 3125 622 3353 813 
L 3353 166 
z
" transform="scale(0.015625)"/>
        <path id="DejaVuSansMono-68" d="M 3284 2169 
L 3284 0 
L 2706 0 
L 2706 2169 
Q 2706 2641 2540 2862 
Q 2375 3084 2022 3084 
Q 1619 3084 1401 2798 
Q 1184 2513 1184 1978 
L 1184 0 
L 609 0 
L 609 4863 
L 1184 4863 
L 1184 2975 
Q 1338 3275 1600 3429 
Q 1863 3584 2222 3584 
Q 2756 3584 3020 3232 
Q 3284 2881 3284 2169 
z
" transform="scale(0.015625)"/>
       </defs>
       <use xlink:href="#DejaVuSansMono-37"/>
       <use xlink:href="#DejaVuSansMono-42" x="60.205078"/>
       <use xlink:href="#DejaVuSansMono-20" x="120.410156"/>
       <use xlink:href="#DejaVuSansMono-43" x="180.615234"/>
       <use xlink:href="#DejaVuSansMono-68" x="240.820312"/>
       <use xlink:href="#DejaVuSansMono-61" x="301.025391"/>
       <use xlink:href="#DejaVuSansMono-74" x="361.230469"/>
      </g>
     </g>
    </g>
    <g id="xtick_11">
     <g id="text_8">
      <!-- 13B -->
      <g transform="translate(341.16875 322.5905) scale(0.16 -0.16)">
       <defs>
        <path id="DejaVuSansMono-31" d="M 844 531 
L 1825 531 
L 1825 4097 
L 769 3859 
L 769 4434 
L 1819 4666 
L 2450 4666 
L 2450 531 
L 3419 531 
L 3419 0 
L 844 0 
L 844 531 
z
" transform="scale(0.015625)"/>
       </defs>
       <use xlink:href="#DejaVuSansMono-31"/>
       <use xlink:href="#DejaVuSansMono-33" x="60.205078"/>
       <use xlink:href="#DejaVuSansMono-42" x="120.410156"/>
      </g>
     </g>
    </g>
    <g id="xtick_12">
     <g id="text_9">
      <!-- 13B Chat -->
      <g transform="translate(400.7875 322.5905) scale(0.16 -0.16)">
       <use xlink:href="#DejaVuSansMono-31"/>
       <use xlink:href="#DejaVuSansMono-33" x="60.205078"/>
       <use xlink:href="#DejaVuSansMono-42" x="120.410156"/>
       <use xlink:href="#DejaVuSansMono-20" x="180.615234"/>
       <use xlink:href="#DejaVuSansMono-43" x="240.820312"/>
       <use xlink:href="#DejaVuSansMono-68" x="301.025391"/>
       <use xlink:href="#DejaVuSansMono-61" x="361.230469"/>
       <use xlink:href="#DejaVuSansMono-74" x="421.435547"/>
      </g>
     </g>
    </g>
    <g id="xtick_13">
     <g id="text_10">
      <!-- 8B -->
      <g transform="translate(513.385 322.5905) scale(0.16 -0.16)">
       <defs>
        <path id="DejaVuSansMono-38" d="M 1925 2216 
Q 1503 2216 1273 1980 
Q 1044 1744 1044 1313 
Q 1044 881 1276 642 
Q 1509 403 1925 403 
Q 2350 403 2579 639 
Q 2809 875 2809 1313 
Q 2809 1741 2576 1978 
Q 2344 2216 1925 2216 
z
M 1375 2478 
Q 972 2581 745 2862 
Q 519 3144 519 3541 
Q 519 4097 897 4423 
Q 1275 4750 1925 4750 
Q 2578 4750 2956 4423 
Q 3334 4097 3334 3541 
Q 3334 3144 3107 2862 
Q 2881 2581 2478 2478 
Q 2947 2375 3195 2062 
Q 3444 1750 3444 1253 
Q 3444 622 3041 265 
Q 2638 -91 1925 -91 
Q 1213 -91 811 264 
Q 409 619 409 1247 
Q 409 1747 657 2061 
Q 906 2375 1375 2478 
z
M 1147 3481 
Q 1147 3106 1347 2909 
Q 1547 2713 1925 2713 
Q 2306 2713 2506 2909 
Q 2706 3106 2706 3481 
Q 2706 3863 2507 4063 
Q 2309 4263 1925 4263 
Q 1547 4263 1347 4061 
Q 1147 3859 1147 3481 
z
" transform="scale(0.015625)"/>
       </defs>
       <use xlink:href="#DejaVuSansMono-38"/>
       <use xlink:href="#DejaVuSansMono-42" x="60.205078"/>
      </g>
     </g>
    </g>
    <g id="xtick_14">
     <g id="text_11">
      <!-- 8B Inst. -->
      <g transform="translate(568.1875 322.5905) scale(0.16 -0.16)">
       <defs>
        <path id="DejaVuSansMono-2e" d="M 1528 953 
L 2316 953 
L 2316 0 
L 1528 0 
L 1528 953 
z
" transform="scale(0.015625)"/>
       </defs>
       <use xlink:href="#DejaVuSansMono-38"/>
       <use xlink:href="#DejaVuSansMono-42" x="60.205078"/>
       <use xlink:href="#DejaVuSansMono-20" x="120.410156"/>
       <use xlink:href="#DejaVuSansMono-49" x="180.615234"/>
       <use xlink:href="#DejaVuSansMono-6e" x="240.820312"/>
       <use xlink:href="#DejaVuSansMono-73" x="301.025391"/>
       <use xlink:href="#DejaVuSansMono-74" x="361.230469"/>
       <use xlink:href="#DejaVuSansMono-2e" x="421.435547"/>
      </g>
     </g>
    </g>
    <g id="xtick_15">
     <g id="text_12">
      <!-- 7B Inst. -->
      <g transform="translate(651.8875 322.5905) scale(0.16 -0.16)">
       <use xlink:href="#DejaVuSansMono-37"/>
       <use xlink:href="#DejaVuSansMono-42" x="60.205078"/>
       <use xlink:href="#DejaVuSansMono-20" x="120.410156"/>
       <use xlink:href="#DejaVuSansMono-49" x="180.615234"/>
       <use xlink:href="#DejaVuSansMono-6e" x="240.820312"/>
       <use xlink:href="#DejaVuSansMono-73" x="301.025391"/>
       <use xlink:href="#DejaVuSansMono-74" x="361.230469"/>
       <use xlink:href="#DejaVuSansMono-2e" x="421.435547"/>
      </g>
     </g>
    </g>
    <g id="text_13">
     <!-- Model -->
     <g transform="translate(373.38625 371.0305) scale(0.16 -0.16)">
      <defs>
       <path id="DejaVuSansMono-6f" d="M 1925 3097 
Q 1488 3097 1263 2756 
Q 1038 2416 1038 1747 
Q 1038 1081 1263 739 
Q 1488 397 1925 397 
Q 2366 397 2591 739 
Q 2816 1081 2816 1747 
Q 2816 2416 2591 2756 
Q 2366 3097 1925 3097 
z
M 1925 3584 
Q 2653 3584 3039 3112 
Q 3425 2641 3425 1747 
Q 3425 850 3040 379 
Q 2656 -91 1925 -91 
Q 1197 -91 812 379 
Q 428 850 428 1747 
Q 428 2641 812 3112 
Q 1197 3584 1925 3584 
z
" transform="scale(0.015625)"/>
       <path id="DejaVuSansMono-64" d="M 2681 3053 
L 2681 4863 
L 3256 4863 
L 3256 0 
L 2681 0 
L 2681 441 
Q 2538 181 2298 45 
Q 2059 -91 1747 -91 
Q 1113 -91 748 401 
Q 384 894 384 1759 
Q 384 2613 750 3098 
Q 1116 3584 1747 3584 
Q 2063 3584 2303 3448 
Q 2544 3313 2681 3053 
z
M 991 1747 
Q 991 1078 1203 737 
Q 1416 397 1831 397 
Q 2247 397 2464 740 
Q 2681 1084 2681 1747 
Q 2681 2413 2464 2755 
Q 2247 3097 1831 3097 
Q 1416 3097 1203 2756 
Q 991 2416 991 1747 
z
" transform="scale(0.015625)"/>
      </defs>
      <use xlink:href="#DejaVuSansMono-4d"/>
      <use xlink:href="#DejaVuSansMono-6f" x="60.205078"/>
      <use xlink:href="#DejaVuSansMono-64" x="120.410156"/>
      <use xlink:href="#DejaVuSansMono-65" x="180.615234"/>
      <use xlink:href="#DejaVuSansMono-6c" x="240.820312"/>
     </g>
    </g>
   </g>
   <g id="matplotlib.axis_6">
    <g id="ytick_1">
     <g id="line2d_8">
      <path d="M 62.6675 303.348 
L 732.2675 303.348 
" clip-path="url(#p20747fc89e)" style="fill: none; stroke: #b0b0b0; stroke-width: 0.8; stroke-linecap: square"/>
     </g>
     <g id="text_14">
      <!-- 0.0 -->
      <g transform="translate(26.77 309.46925) scale(0.16 -0.16)">
       <defs>
        <path id="DejaVuSansMono-30" d="M 1509 2344 
Q 1509 2516 1629 2641 
Q 1750 2766 1919 2766 
Q 2094 2766 2219 2641 
Q 2344 2516 2344 2344 
Q 2344 2169 2220 2047 
Q 2097 1925 1919 1925 
Q 1744 1925 1626 2044 
Q 1509 2163 1509 2344 
z
M 1925 4250 
Q 1484 4250 1267 3775 
Q 1050 3300 1050 2328 
Q 1050 1359 1267 884 
Q 1484 409 1925 409 
Q 2369 409 2586 884 
Q 2803 1359 2803 2328 
Q 2803 3300 2586 3775 
Q 2369 4250 1925 4250 
z
M 1925 4750 
Q 2672 4750 3055 4137 
Q 3438 3525 3438 2328 
Q 3438 1134 3055 521 
Q 2672 -91 1925 -91 
Q 1178 -91 797 521 
Q 416 1134 416 2328 
Q 416 3525 797 4137 
Q 1178 4750 1925 4750 
z
" transform="scale(0.015625)"/>
       </defs>
       <use xlink:href="#DejaVuSansMono-30"/>
       <use xlink:href="#DejaVuSansMono-2e" x="60.205078"/>
       <use xlink:href="#DejaVuSansMono-30" x="120.410156"/>
      </g>
     </g>
    </g>
    <g id="ytick_2">
     <g id="line2d_9">
      <path d="M 62.6675 247.908 
L 732.2675 247.908 
" clip-path="url(#p20747fc89e)" style="fill: none; stroke: #b0b0b0; stroke-width: 0.8; stroke-linecap: square"/>
     </g>
     <g id="text_15">
      <!-- 0.1 -->
      <g transform="translate(26.77 254.02925) scale(0.16 -0.16)">
       <use xlink:href="#DejaVuSansMono-30"/>
       <use xlink:href="#DejaVuSansMono-2e" x="60.205078"/>
       <use xlink:href="#DejaVuSansMono-31" x="120.410156"/>
      </g>
     </g>
    </g>
    <g id="ytick_3">
     <g id="line2d_10">
      <path d="M 62.6675 192.468 
L 732.2675 192.468 
" clip-path="url(#p20747fc89e)" style="fill: none; stroke: #b0b0b0; stroke-width: 0.8; stroke-linecap: square"/>
     </g>
     <g id="text_16">
      <!-- 0.2 -->
      <g transform="translate(26.77 198.58925) scale(0.16 -0.16)">
       <use xlink:href="#DejaVuSansMono-30"/>
       <use xlink:href="#DejaVuSansMono-2e" x="60.205078"/>
       <use xlink:href="#DejaVuSansMono-32" x="120.410156"/>
      </g>
     </g>
    </g>
    <g id="ytick_4">
     <g id="line2d_11">
      <path d="M 62.6675 137.028 
L 732.2675 137.028 
" clip-path="url(#p20747fc89e)" style="fill: none; stroke: #b0b0b0; stroke-width: 0.8; stroke-linecap: square"/>
     </g>
     <g id="text_17">
      <!-- 0.3 -->
      <g transform="translate(26.77 143.14925) scale(0.16 -0.16)">
       <use xlink:href="#DejaVuSansMono-30"/>
       <use xlink:href="#DejaVuSansMono-2e" x="60.205078"/>
       <use xlink:href="#DejaVuSansMono-33" x="120.410156"/>
      </g>
     </g>
    </g>
    <g id="ytick_5">
     <g id="line2d_12">
      <path d="M 62.6675 81.588 
L 732.2675 81.588 
" clip-path="url(#p20747fc89e)" style="fill: none; stroke: #b0b0b0; stroke-width: 0.8; stroke-linecap: square"/>
     </g>
     <g id="text_18">
      <!-- 0.4 -->
      <g transform="translate(26.77 87.70925) scale(0.16 -0.16)">
       <defs>
        <path id="DejaVuSansMono-34" d="M 2297 4091 
L 825 1625 
L 2297 1625 
L 2297 4091 
z
M 2194 4666 
L 2925 4666 
L 2925 1625 
L 3547 1625 
L 3547 1113 
L 2925 1113 
L 2925 0 
L 2297 0 
L 2297 1113 
L 319 1113 
L 319 1709 
L 2194 4666 
z
" transform="scale(0.015625)"/>
       </defs>
       <use xlink:href="#DejaVuSansMono-30"/>
       <use xlink:href="#DejaVuSansMono-2e" x="60.205078"/>
       <use xlink:href="#DejaVuSansMono-34" x="120.410156"/>
      </g>
     </g>
    </g>
    <g id="ytick_6">
     <g id="line2d_13">
      <path d="M 62.6675 26.148 
L 732.2675 26.148 
" clip-path="url(#p20747fc89e)" style="fill: none; stroke: #b0b0b0; stroke-width: 0.8; stroke-linecap: square"/>
     </g>
     <g id="text_19">
      <!-- 0.5 -->
      <g transform="translate(26.77 32.26925) scale(0.16 -0.16)">
       <defs>
        <path id="DejaVuSansMono-35" d="M 647 4666 
L 3009 4666 
L 3009 4134 
L 1222 4134 
L 1222 2988 
Q 1356 3038 1492 3061 
Q 1628 3084 1766 3084 
Q 2491 3084 2916 2656 
Q 3341 2228 3341 1497 
Q 3341 759 2895 334 
Q 2450 -91 1678 -91 
Q 1306 -91 998 -41 
Q 691 9 447 109 
L 447 750 
Q 734 594 1025 517 
Q 1316 441 1619 441 
Q 2141 441 2423 716 
Q 2706 991 2706 1497 
Q 2706 1997 2414 2275 
Q 2122 2553 1600 2553 
Q 1347 2553 1106 2495 
Q 866 2438 647 2322 
L 647 4666 
z
" transform="scale(0.015625)"/>
       </defs>
       <use xlink:href="#DejaVuSansMono-30"/>
       <use xlink:href="#DejaVuSansMono-2e" x="60.205078"/>
       <use xlink:href="#DejaVuSansMono-35" x="120.410156"/>
      </g>
     </g>
    </g>
    <g id="text_20">
     <!-- Modified CSQA Accuracy -->
     <g transform="translate(19.4425 270.7055) rotate(-90) scale(0.16 -0.16)">
      <defs>
       <path id="DejaVuSansMono-66" d="M 3322 4863 
L 3322 4384 
L 2669 4384 
Q 2359 4384 2239 4257 
Q 2119 4131 2119 3809 
L 2119 3500 
L 3322 3500 
L 3322 3053 
L 2119 3053 
L 2119 0 
L 1544 0 
L 1544 3053 
L 609 3053 
L 609 3500 
L 1544 3500 
L 1544 3744 
Q 1544 4319 1808 4591 
Q 2072 4863 2631 4863 
L 3322 4863 
z
" transform="scale(0.015625)"/>
       <path id="DejaVuSansMono-53" d="M 3163 4506 
L 3163 3866 
Q 2875 4050 2586 4144 
Q 2297 4238 2003 4238 
Q 1556 4238 1297 4030 
Q 1038 3822 1038 3469 
Q 1038 3159 1208 2996 
Q 1378 2834 1844 2725 
L 2175 2650 
Q 2831 2497 3131 2169 
Q 3431 1841 3431 1275 
Q 3431 609 3018 259 
Q 2606 -91 1819 -91 
Q 1491 -91 1159 -20 
Q 828 50 494 191 
L 494 863 
Q 853 634 1173 528 
Q 1494 422 1819 422 
Q 2297 422 2562 636 
Q 2828 850 2828 1234 
Q 2828 1584 2645 1768 
Q 2463 1953 2009 2053 
L 1672 2131 
Q 1022 2278 728 2575 
Q 434 2872 434 3372 
Q 434 3997 854 4373 
Q 1275 4750 1972 4750 
Q 2241 4750 2537 4689 
Q 2834 4628 3163 4506 
z
" transform="scale(0.015625)"/>
       <path id="DejaVuSansMono-51" d="M 2047 -84 
Q 2025 -84 1984 -87 
Q 1944 -91 1919 -91 
Q 1138 -91 752 509 
Q 366 1109 366 2328 
Q 366 3550 752 4150 
Q 1138 4750 1925 4750 
Q 2716 4750 3102 4150 
Q 3488 3550 3488 2328 
Q 3488 1409 3273 848 
Q 3059 288 2625 63 
L 3250 -531 
L 2778 -844 
L 2047 -84 
z
M 2828 2328 
Q 2828 3356 2617 3797 
Q 2406 4238 1925 4238 
Q 1447 4238 1236 3797 
Q 1025 3356 1025 2328 
Q 1025 1303 1236 862 
Q 1447 422 1925 422 
Q 2406 422 2617 861 
Q 2828 1300 2828 2328 
z
" transform="scale(0.015625)"/>
       <path id="DejaVuSansMono-63" d="M 3316 178 
Q 3084 44 2839 -23 
Q 2594 -91 2338 -91 
Q 1525 -91 1067 396 
Q 609 884 609 1747 
Q 609 2609 1067 3096 
Q 1525 3584 2338 3584 
Q 2591 3584 2831 3518 
Q 3072 3453 3316 3316 
L 3316 2713 
Q 3088 2916 2858 3006 
Q 2628 3097 2338 3097 
Q 1797 3097 1506 2747 
Q 1216 2397 1216 1747 
Q 1216 1100 1508 748 
Q 1800 397 2338 397 
Q 2638 397 2875 489 
Q 3113 581 3316 775 
L 3316 178 
z
" transform="scale(0.015625)"/>
       <path id="DejaVuSansMono-75" d="M 609 1325 
L 609 3494 
L 1184 3494 
L 1184 1325 
Q 1184 853 1351 631 
Q 1519 409 1869 409 
Q 2275 409 2490 695 
Q 2706 981 2706 1516 
L 2706 3494 
L 3284 3494 
L 3284 0 
L 2706 0 
L 2706 525 
Q 2553 222 2289 65 
Q 2025 -91 1672 -91 
Q 1134 -91 871 261 
Q 609 613 609 1325 
z
" transform="scale(0.015625)"/>
       <path id="DejaVuSansMono-79" d="M 2681 1125 
Q 2538 759 2316 163 
Q 2006 -663 1900 -844 
Q 1756 -1088 1540 -1209 
Q 1325 -1331 1038 -1331 
L 575 -1331 
L 575 -850 
L 916 -850 
Q 1169 -850 1312 -703 
Q 1456 -556 1678 56 
L 325 3500 
L 934 3500 
L 1972 763 
L 2994 3500 
L 3603 3500 
L 2681 1125 
z
" transform="scale(0.015625)"/>
      </defs>
      <use xlink:href="#DejaVuSansMono-4d"/>
      <use xlink:href="#DejaVuSansMono-6f" x="60.205078"/>
      <use xlink:href="#DejaVuSansMono-64" x="120.410156"/>
      <use xlink:href="#DejaVuSansMono-69" x="180.615234"/>
      <use xlink:href="#DejaVuSansMono-66" x="240.820312"/>
      <use xlink:href="#DejaVuSansMono-69" x="301.025391"/>
      <use xlink:href="#DejaVuSansMono-65" x="361.230469"/>
      <use xlink:href="#DejaVuSansMono-64" x="421.435547"/>
      <use xlink:href="#DejaVuSansMono-20" x="481.640625"/>
      <use xlink:href="#DejaVuSansMono-43" x="541.845703"/>
      <use xlink:href="#DejaVuSansMono-53" x="602.050781"/>
      <use xlink:href="#DejaVuSansMono-51" x="662.255859"/>
      <use xlink:href="#DejaVuSansMono-41" x="722.460938"/>
      <use xlink:href="#DejaVuSansMono-20" x="782.666016"/>
      <use xlink:href="#DejaVuSansMono-41" x="842.871094"/>
      <use xlink:href="#DejaVuSansMono-63" x="903.076172"/>
      <use xlink:href="#DejaVuSansMono-63" x="963.28125"/>
      <use xlink:href="#DejaVuSansMono-75" x="1023.486328"/>
      <use xlink:href="#DejaVuSansMono-72" x="1083.691406"/>
      <use xlink:href="#DejaVuSansMono-61" x="1143.896484"/>
      <use xlink:href="#DejaVuSansMono-63" x="1204.101562"/>
      <use xlink:href="#DejaVuSansMono-79" x="1264.306641"/>
     </g>
    </g>
   </g>
   <g id="line2d_14">
    <path clip-path="url(#p20747fc89e)" style="fill: none; stroke: #424242; stroke-width: 2.25; stroke-linecap: square"/>
   </g>
   <g id="line2d_15">
    <path clip-path="url(#p20747fc89e)" style="fill: none; stroke: #424242; stroke-width: 2.25; stroke-linecap: square"/>
   </g>
   <g id="line2d_16">
    <path clip-path="url(#p20747fc89e)" style="fill: none; stroke: #424242; stroke-width: 2.25; stroke-linecap: square"/>
   </g>
   <g id="line2d_17">
    <path clip-path="url(#p20747fc89e)" style="fill: none; stroke: #424242; stroke-width: 2.25; stroke-linecap: square"/>
   </g>
   <g id="line2d_18">
    <path clip-path="url(#p20747fc89e)" style="fill: none; stroke: #424242; stroke-width: 2.25; stroke-linecap: square"/>
   </g>
   <g id="line2d_19">
    <path clip-path="url(#p20747fc89e)" style="fill: none; stroke: #424242; stroke-width: 2.25; stroke-linecap: square"/>
   </g>
   <g id="line2d_20">
    <path clip-path="url(#p20747fc89e)" style="fill: none; stroke: #424242; stroke-width: 2.25; stroke-linecap: square"/>
   </g>
   <g id="line2d_21">
    <path clip-path="url(#p20747fc89e)" style="fill: none; stroke: #424242; stroke-width: 2.25; stroke-linecap: square"/>
   </g>
   <g id="line2d_22">
    <path clip-path="url(#p20747fc89e)" style="fill: none; stroke: #424242; stroke-width: 2.25; stroke-linecap: square"/>
   </g>
   <g id="line2d_23">
    <path clip-path="url(#p20747fc89e)" style="fill: none; stroke: #424242; stroke-width: 2.25; stroke-linecap: square"/>
   </g>
   <g id="line2d_24">
    <path clip-path="url(#p20747fc89e)" style="fill: none; stroke: #424242; stroke-width: 2.25; stroke-linecap: square"/>
   </g>
   <g id="line2d_25">
    <path clip-path="url(#p20747fc89e)" style="fill: none; stroke: #424242; stroke-width: 2.25; stroke-linecap: square"/>
   </g>
   <g id="line2d_26">
    <path clip-path="url(#p20747fc89e)" style="fill: none; stroke: #424242; stroke-width: 2.25; stroke-linecap: square"/>
   </g>
   <g id="line2d_27">
    <path clip-path="url(#p20747fc89e)" style="fill: none; stroke: #424242; stroke-width: 2.25; stroke-linecap: square"/>
   </g>
   <g id="line2d_28">
    <path clip-path="url(#p20747fc89e)" style="fill: none; stroke: #424242; stroke-width: 2.25; stroke-linecap: square"/>
   </g>
   <g id="line2d_29">
    <path clip-path="url(#p20747fc89e)" style="fill: none; stroke: #424242; stroke-width: 2.25; stroke-linecap: square"/>
   </g>
   <g id="line2d_30">
    <path clip-path="url(#p20747fc89e)" style="fill: none; stroke: #424242; stroke-width: 2.25; stroke-linecap: square"/>
   </g>
   <g id="line2d_31">
    <path clip-path="url(#p20747fc89e)" style="fill: none; stroke: #424242; stroke-width: 2.25; stroke-linecap: square"/>
   </g>
   <g id="line2d_32">
    <path clip-path="url(#p20747fc89e)" style="fill: none; stroke: #424242; stroke-width: 2.25; stroke-linecap: square"/>
   </g>
   <g id="line2d_33">
    <path clip-path="url(#p20747fc89e)" style="fill: none; stroke: #424242; stroke-width: 2.25; stroke-linecap: square"/>
   </g>
   <g id="line2d_34">
    <path clip-path="url(#p20747fc89e)" style="fill: none; stroke: #424242; stroke-width: 2.25; stroke-linecap: square"/>
   </g>
   <g id="line2d_35">
    <path clip-path="url(#p20747fc89e)" style="fill: none; stroke: #424242; stroke-width: 2.25; stroke-linecap: square"/>
   </g>
   <g id="line2d_36">
    <path clip-path="url(#p20747fc89e)" style="fill: none; stroke: #424242; stroke-width: 2.25; stroke-linecap: square"/>
   </g>
   <g id="line2d_37">
    <path clip-path="url(#p20747fc89e)" style="fill: none; stroke: #424242; stroke-width: 2.25; stroke-linecap: square"/>
   </g>
   <g id="patch_34">
    <path d="M 62.6675 303.348 
L 732.2675 303.348 
" style="fill: none; stroke: #000000; stroke-width: 0.8; stroke-linejoin: miter; stroke-linecap: square"/>
   </g>
   <g id="legend_1">
    <g id="text_21">
     <!-- Question Ordering -->
     <g transform="translate(77.213344 22.712187) scale(0.14 -0.14)">
      <defs>
       <path id="DejaVuSansMono-67" d="M 2681 1778 
Q 2681 2425 2470 2761 
Q 2259 3097 1856 3097 
Q 1434 3097 1212 2761 
Q 991 2425 991 1778 
Q 991 1131 1214 792 
Q 1438 453 1863 453 
Q 2259 453 2470 793 
Q 2681 1134 2681 1778 
z
M 3256 225 
Q 3256 -563 2884 -969 
Q 2513 -1375 1791 -1375 
Q 1553 -1375 1293 -1331 
Q 1034 -1288 775 -1203 
L 775 -634 
Q 1081 -778 1331 -847 
Q 1581 -916 1791 -916 
Q 2256 -916 2468 -662 
Q 2681 -409 2681 141 
L 2681 166 
L 2681 556 
Q 2544 263 2306 119 
Q 2069 -25 1728 -25 
Q 1116 -25 750 465 
Q 384 956 384 1778 
Q 384 2603 750 3093 
Q 1116 3584 1728 3584 
Q 2066 3584 2300 3450 
Q 2534 3316 2681 3034 
L 2681 3488 
L 3256 3488 
L 3256 225 
z
" transform="scale(0.015625)"/>
      </defs>
      <use xlink:href="#DejaVuSansMono-51"/>
      <use xlink:href="#DejaVuSansMono-75" x="60.205078"/>
      <use xlink:href="#DejaVuSansMono-65" x="120.410156"/>
      <use xlink:href="#DejaVuSansMono-73" x="180.615234"/>
      <use xlink:href="#DejaVuSansMono-74" x="240.820312"/>
      <use xlink:href="#DejaVuSansMono-69" x="301.025391"/>
      <use xlink:href="#DejaVuSansMono-6f" x="361.230469"/>
      <use xlink:href="#DejaVuSansMono-6e" x="421.435547"/>
      <use xlink:href="#DejaVuSansMono-20" x="481.640625"/>
      <use xlink:href="#DejaVuSansMono-4f" x="541.845703"/>
      <use xlink:href="#DejaVuSansMono-72" x="602.050781"/>
      <use xlink:href="#DejaVuSansMono-64" x="662.255859"/>
      <use xlink:href="#DejaVuSansMono-65" x="722.460938"/>
      <use xlink:href="#DejaVuSansMono-72" x="782.666016"/>
      <use xlink:href="#DejaVuSansMono-69" x="842.871094"/>
      <use xlink:href="#DejaVuSansMono-6e" x="903.076172"/>
      <use xlink:href="#DejaVuSansMono-67" x="963.28125"/>
     </g>
    </g>
    <g id="patch_35">
     <path d="M 63.4235 40.901875 
L 87.4235 40.901875 
L 87.4235 32.501875 
L 63.4235 32.501875 
z
" style="fill: #3274a1"/>
    </g>
    <g id="text_22">
     <!-- Default Ordering -->
     <g transform="translate(97.0235 40.901875) scale(0.12 -0.12)">
      <defs>
       <path id="DejaVuSansMono-44" d="M 1363 519 
Q 2159 519 2475 911 
Q 2791 1303 2791 2328 
Q 2791 3363 2477 3755 
Q 2163 4147 1363 4147 
L 1063 4147 
L 1063 519 
L 1363 519 
z
M 1375 4666 
Q 2444 4666 2950 4097 
Q 3456 3528 3456 2328 
Q 3456 1134 2950 567 
Q 2444 0 1375 0 
L 428 0 
L 428 4666 
L 1375 4666 
z
" transform="scale(0.015625)"/>
      </defs>
      <use xlink:href="#DejaVuSansMono-44"/>
      <use xlink:href="#DejaVuSansMono-65" x="60.205078"/>
      <use xlink:href="#DejaVuSansMono-66" x="120.410156"/>
      <use xlink:href="#DejaVuSansMono-61" x="180.615234"/>
      <use xlink:href="#DejaVuSansMono-75" x="240.820312"/>
      <use xlink:href="#DejaVuSansMono-6c" x="301.025391"/>
      <use xlink:href="#DejaVuSansMono-74" x="361.230469"/>
      <use xlink:href="#DejaVuSansMono-20" x="421.435547"/>
      <use xlink:href="#DejaVuSansMono-4f" x="481.640625"/>
      <use xlink:href="#DejaVuSansMono-72" x="541.845703"/>
      <use xlink:href="#DejaVuSansMono-64" x="602.050781"/>
      <use xlink:href="#DejaVuSansMono-65" x="662.255859"/>
      <use xlink:href="#DejaVuSansMono-72" x="722.460938"/>
      <use xlink:href="#DejaVuSansMono-69" x="782.666016"/>
      <use xlink:href="#DejaVuSansMono-6e" x="842.871094"/>
      <use xlink:href="#DejaVuSansMono-67" x="903.076172"/>
     </g>
    </g>
    <g id="patch_36">
     <path d="M 63.4235 58.661875 
L 87.4235 58.661875 
L 87.4235 50.261875 
L 63.4235 50.261875 
z
" style="fill: #40923a"/>
    </g>
    <g id="text_23">
     <!-- Set-Based Prompting -->
     <g transform="translate(97.0235 58.661875) scale(0.12 -0.12)">
      <use xlink:href="#DejaVuSansMono-53"/>
      <use xlink:href="#DejaVuSansMono-65" x="60.205078"/>
      <use xlink:href="#DejaVuSansMono-74" x="120.410156"/>
      <use xlink:href="#DejaVuSansMono-2d" x="180.615234"/>
      <use xlink:href="#DejaVuSansMono-42" x="240.820312"/>
      <use xlink:href="#DejaVuSansMono-61" x="301.025391"/>
      <use xlink:href="#DejaVuSansMono-73" x="361.230469"/>
      <use xlink:href="#DejaVuSansMono-65" x="421.435547"/>
      <use xlink:href="#DejaVuSansMono-64" x="481.640625"/>
      <use xlink:href="#DejaVuSansMono-20" x="541.845703"/>
      <use xlink:href="#DejaVuSansMono-50" x="602.050781"/>
      <use xlink:href="#DejaVuSansMono-72" x="662.255859"/>
      <use xlink:href="#DejaVuSansMono-6f" x="722.460938"/>
      <use xlink:href="#DejaVuSansMono-6d" x="782.666016"/>
      <use xlink:href="#DejaVuSansMono-70" x="842.871094"/>
      <use xlink:href="#DejaVuSansMono-74" x="903.076172"/>
      <use xlink:href="#DejaVuSansMono-69" x="963.28125"/>
      <use xlink:href="#DejaVuSansMono-6e" x="1023.486328"/>
      <use xlink:href="#DejaVuSansMono-67" x="1083.691406"/>
     </g>
    </g>
    <g id="patch_37">
     <path d="M 63.4235 76.421875 
L 87.4235 76.421875 
L 87.4235 68.021875 
L 63.4235 68.021875 
z
" style="fill: #aeccdb"/>
    </g>
    <g id="text_24">
     <!-- Reversed Ordering -->
     <g transform="translate(97.0235 76.421875) scale(0.12 -0.12)">
      <defs>
       <path id="DejaVuSansMono-52" d="M 2375 2203 
Q 2619 2141 2791 1967 
Q 2963 1794 3219 1275 
L 3853 0 
L 3175 0 
L 2619 1178 
Q 2378 1681 2186 1826 
Q 1994 1972 1684 1972 
L 1081 1972 
L 1081 0 
L 447 0 
L 447 4666 
L 1747 4666 
Q 2516 4666 2925 4319 
Q 3334 3972 3334 3316 
Q 3334 2853 3082 2561 
Q 2831 2269 2375 2203 
z
M 1081 4147 
L 1081 2491 
L 1772 2491 
Q 2225 2491 2447 2694 
Q 2669 2897 2669 3316 
Q 2669 3719 2433 3933 
Q 2197 4147 1747 4147 
L 1081 4147 
z
" transform="scale(0.015625)"/>
       <path id="DejaVuSansMono-76" d="M 313 3500 
L 909 3500 
L 1925 563 
L 2944 3500 
L 3541 3500 
L 2297 0 
L 1556 0 
L 313 3500 
z
" transform="scale(0.015625)"/>
      </defs>
      <use xlink:href="#DejaVuSansMono-52"/>
      <use xlink:href="#DejaVuSansMono-65" x="60.205078"/>
      <use xlink:href="#DejaVuSansMono-76" x="120.410156"/>
      <use xlink:href="#DejaVuSansMono-65" x="180.615234"/>
      <use xlink:href="#DejaVuSansMono-72" x="240.820312"/>
      <use xlink:href="#DejaVuSansMono-73" x="301.025391"/>
      <use xlink:href="#DejaVuSansMono-65" x="361.230469"/>
      <use xlink:href="#DejaVuSansMono-64" x="421.435547"/>
      <use xlink:href="#DejaVuSansMono-20" x="481.640625"/>
      <use xlink:href="#DejaVuSansMono-4f" x="541.845703"/>
      <use xlink:href="#DejaVuSansMono-72" x="602.050781"/>
      <use xlink:href="#DejaVuSansMono-64" x="662.255859"/>
      <use xlink:href="#DejaVuSansMono-65" x="722.460938"/>
      <use xlink:href="#DejaVuSansMono-72" x="782.666016"/>
      <use xlink:href="#DejaVuSansMono-69" x="842.871094"/>
      <use xlink:href="#DejaVuSansMono-6e" x="903.076172"/>
      <use xlink:href="#DejaVuSansMono-67" x="963.28125"/>
     </g>
    </g>
   </g>
  </g>
 </g>
 <defs>
  <clipPath id="p20747fc89e">
   <rect x="62.6675" y="26.148" width="669.6" height="277.2"/>
  </clipPath>
 </defs>
</svg>
