<?xml version="1.0" encoding="utf-8" standalone="no"?>
<!DOCTYPE svg PUBLIC "-//W3C//DTD SVG 1.1//EN"
  "http://www.w3.org/Graphics/SVG/1.1/DTD/svg11.dtd">
<svg xmlns:xlink="http://www.w3.org/1999/xlink" width="624.672188pt" height="543.51125pt" viewBox="0 0 624.672188 543.51125" xmlns="http://www.w3.org/2000/svg" version="1.1">
 <metadata>
  <rdf:RDF xmlns:dc="http://purl.org/dc/elements/1.1/" xmlns:cc="http://creativecommons.org/ns#" xmlns:rdf="http://www.w3.org/1999/02/22-rdf-syntax-ns#">
   <cc:Work>
    <dc:type rdf:resource="http://purl.org/dc/dcmitype/StillImage"/>
    <dc:date>2024-05-31T02:31:44.507036</dc:date>
    <dc:format>image/svg+xml</dc:format>
    <dc:creator>
     <cc:Agent>
      <dc:title>Matplotlib v3.7.0, https://matplotlib.org/</dc:title>
     </cc:Agent>
    </dc:creator>
   </cc:Work>
  </rdf:RDF>
 </metadata>
 <defs>
  <style type="text/css">*{stroke-linejoin: round; stroke-linecap: butt}</style>
 </defs>
 <g id="figure_1">
  <g id="patch_1">
   <path d="M 0 543.51125 
L 624.672188 543.51125 
L 624.672188 0 
L 0 0 
L 0 543.51125 
z
" style="fill: none"/>
  </g>
  <g id="axes_1">
   <g id="patch_2">
    <path d="M 56.82875 284.4 
L 559.02875 284.4 
L 559.02875 7.2 
L 56.82875 7.2 
L 56.82875 284.4 
z
" style="fill: none"/>
   </g>
   <g id="patch_3">
    <path d="M 79.656023 284.4 
L 103.06861 284.4 
L 103.06861 149.69047 
L 79.656023 149.69047 
z
" clip-path="url(#pbde0346a27)" style="fill: #3274a1"/>
   </g>
   <g id="patch_4">
    <path d="M 138.187491 284.4 
L 161.600079 284.4 
L 161.600079 140.712571 
L 138.187491 140.712571 
z
" clip-path="url(#pbde0346a27)" style="fill: #3274a1"/>
   </g>
   <g id="patch_5">
    <path d="M 196.71896 284.4 
L 220.131547 284.4 
L 220.131547 130.418038 
L 196.71896 130.418038 
z
" clip-path="url(#pbde0346a27)" style="fill: #3274a1"/>
   </g>
   <g id="patch_6">
    <path d="M 255.250428 284.4 
L 278.663016 284.4 
L 278.663016 125.699731 
L 255.250428 125.699731 
z
" clip-path="url(#pbde0346a27)" style="fill: #3274a1"/>
   </g>
   <g id="patch_7">
    <path d="M 313.781897 284.4 
L 337.194484 284.4 
L 337.194484 103.675128 
L 313.781897 103.675128 
z
" clip-path="url(#pbde0346a27)" style="fill: #3274a1"/>
   </g>
   <g id="patch_8">
    <path d="M 372.313365 284.4 
L 395.725953 284.4 
L 395.725953 107.781959 
L 372.313365 107.781959 
z
" clip-path="url(#pbde0346a27)" style="fill: #3274a1"/>
   </g>
   <g id="patch_9">
    <path d="M 430.844834 284.4 
L 454.257421 284.4 
L 454.257421 86.715036 
L 430.844834 86.715036 
z
" clip-path="url(#pbde0346a27)" style="fill: #3274a1"/>
   </g>
   <g id="patch_10">
    <path d="M 489.376302 284.4 
L 512.78889 284.4 
L 512.78889 116.643437 
L 489.376302 116.643437 
z
" clip-path="url(#pbde0346a27)" style="fill: #3274a1"/>
   </g>
   <g id="patch_11">
    <path d="M 103.06861 284.4 
L 126.481198 284.4 
L 126.481198 147.25889 
L 103.06861 147.25889 
z
" clip-path="url(#pbde0346a27)" style="fill: #e1812c"/>
   </g>
   <g id="patch_12">
    <path d="M 161.600079 284.4 
L 185.012666 284.4 
L 185.012666 145.026168 
L 161.600079 145.026168 
z
" clip-path="url(#pbde0346a27)" style="fill: #e1812c"/>
   </g>
   <g id="patch_13">
    <path d="M 220.131547 284.4 
L 243.544135 284.4 
L 243.544135 139.234582 
L 220.131547 139.234582 
z
" clip-path="url(#pbde0346a27)" style="fill: #e1812c"/>
   </g>
   <g id="patch_14">
    <path d="M 278.663016 284.4 
L 302.075603 284.4 
L 302.075603 134.018697 
L 278.663016 134.018697 
z
" clip-path="url(#pbde0346a27)" style="fill: #e1812c"/>
   </g>
   <g id="patch_15">
    <path d="M 337.194484 284.4 
L 360.607072 284.4 
L 360.607072 129.854204 
L 337.194484 129.854204 
z
" clip-path="url(#pbde0346a27)" style="fill: #e1812c"/>
   </g>
   <g id="patch_16">
    <path d="M 395.725953 284.4 
L 419.13854 284.4 
L 419.13854 133.592083 
L 395.725953 133.592083 
z
" clip-path="url(#pbde0346a27)" style="fill: #e1812c"/>
   </g>
   <g id="patch_17">
    <path d="M 454.257421 284.4 
L 477.670009 284.4 
L 477.670009 130.505012 
L 454.257421 130.505012 
z
" clip-path="url(#pbde0346a27)" style="fill: #e1812c"/>
   </g>
   <g id="patch_18">
    <path d="M 512.78889 284.4 
L 536.201477 284.4 
L 536.201477 139.010979 
L 512.78889 139.010979 
z
" clip-path="url(#pbde0346a27)" style="fill: #e1812c"/>
   </g>
   <g id="patch_19">
    <path d="M 103.06861 284.4 
L 103.06861 284.4 
L 103.06861 284.4 
L 103.06861 284.4 
z
" clip-path="url(#pbde0346a27)" style="fill: #3274a1"/>
   </g>
   <g id="patch_20">
    <path d="M 103.06861 284.4 
L 103.06861 284.4 
L 103.06861 284.4 
L 103.06861 284.4 
z
" clip-path="url(#pbde0346a27)" style="fill: #e1812c"/>
   </g>
   <g id="matplotlib.axis_1">
    <g id="xtick_1">
     <g id="text_1">
      <!-- gpt2 -->
      <g transform="translate(99.63111 329.93) rotate(-90) scale(0.16 -0.16)">
       <defs>
        <path id="DejaVuSansMono-67" d="M 2681 1778 
Q 2681 2425 2470 2761 
Q 2259 3097 1856 3097 
Q 1434 3097 1212 2761 
Q 991 2425 991 1778 
Q 991 1131 1214 792 
Q 1438 453 1863 453 
Q 2259 453 2470 793 
Q 2681 1134 2681 1778 
z
M 3256 225 
Q 3256 -563 2884 -969 
Q 2513 -1375 1791 -1375 
Q 1553 -1375 1293 -1331 
Q 1034 -1288 775 -1203 
L 775 -634 
Q 1081 -778 1331 -847 
Q 1581 -916 1791 -916 
Q 2256 -916 2468 -662 
Q 2681 -409 2681 141 
L 2681 166 
L 2681 556 
Q 2544 263 2306 119 
Q 2069 -25 1728 -25 
Q 1116 -25 750 465 
Q 384 956 384 1778 
Q 384 2603 750 3093 
Q 1116 3584 1728 3584 
Q 2066 3584 2300 3450 
Q 2534 3316 2681 3034 
L 2681 3488 
L 3256 3488 
L 3256 225 
z
" transform="scale(0.015625)"/>
        <path id="DejaVuSansMono-70" d="M 1172 441 
L 1172 -1331 
L 594 -1331 
L 594 3500 
L 1172 3500 
L 1172 3053 
Q 1316 3313 1555 3448 
Q 1794 3584 2106 3584 
Q 2741 3584 3102 3093 
Q 3463 2603 3463 1734 
Q 3463 881 3100 395 
Q 2738 -91 2106 -91 
Q 1788 -91 1548 45 
Q 1309 181 1172 441 
z
M 2859 1747 
Q 2859 2416 2648 2756 
Q 2438 3097 2022 3097 
Q 1603 3097 1387 2755 
Q 1172 2413 1172 1747 
Q 1172 1084 1387 740 
Q 1603 397 2022 397 
Q 2438 397 2648 737 
Q 2859 1078 2859 1747 
z
" transform="scale(0.015625)"/>
        <path id="DejaVuSansMono-74" d="M 1919 4494 
L 1919 3500 
L 3225 3500 
L 3225 3053 
L 1919 3053 
L 1919 1153 
Q 1919 766 2066 612 
Q 2213 459 2578 459 
L 3225 459 
L 3225 0 
L 2522 0 
Q 1875 0 1609 259 
Q 1344 519 1344 1153 
L 1344 3053 
L 409 3053 
L 409 3500 
L 1344 3500 
L 1344 4494 
L 1919 4494 
z
" transform="scale(0.015625)"/>
        <path id="DejaVuSansMono-32" d="M 1166 531 
L 3309 531 
L 3309 0 
L 475 0 
L 475 531 
Q 1059 1147 1496 1619 
Q 1934 2091 2100 2284 
Q 2413 2666 2522 2902 
Q 2631 3138 2631 3384 
Q 2631 3775 2401 3997 
Q 2172 4219 1772 4219 
Q 1488 4219 1175 4116 
Q 863 4013 513 3803 
L 513 4441 
Q 834 4594 1145 4672 
Q 1456 4750 1759 4750 
Q 2444 4750 2861 4386 
Q 3278 4022 3278 3431 
Q 3278 3131 3139 2831 
Q 3000 2531 2688 2169 
Q 2513 1966 2180 1606 
Q 1847 1247 1166 531 
z
" transform="scale(0.015625)"/>
       </defs>
       <use xlink:href="#DejaVuSansMono-67"/>
       <use xlink:href="#DejaVuSansMono-70" x="60.205078"/>
       <use xlink:href="#DejaVuSansMono-74" x="120.410156"/>
       <use xlink:href="#DejaVuSansMono-32" x="180.615234"/>
      </g>
     </g>
    </g>
    <g id="xtick_2">
     <g id="text_2">
      <!-- Llama-2-7b-hf -->
      <g transform="translate(158.272579 416.6225) rotate(-90) scale(0.16 -0.16)">
       <defs>
        <path id="DejaVuSansMono-4c" d="M 672 4666 
L 1306 4666 
L 1306 531 
L 3559 531 
L 3559 0 
L 672 0 
L 672 4666 
z
" transform="scale(0.015625)"/>
        <path id="DejaVuSansMono-6c" d="M 1997 1269 
Q 1997 881 2139 684 
Q 2281 488 2559 488 
L 3231 488 
L 3231 0 
L 2503 0 
Q 1988 0 1705 331 
Q 1422 663 1422 1269 
L 1422 4447 
L 500 4447 
L 500 4897 
L 1997 4897 
L 1997 1269 
z
" transform="scale(0.015625)"/>
        <path id="DejaVuSansMono-61" d="M 2194 1759 
L 2003 1759 
Q 1500 1759 1245 1582 
Q 991 1406 991 1056 
Q 991 741 1181 566 
Q 1372 391 1709 391 
Q 2184 391 2456 720 
Q 2728 1050 2731 1631 
L 2731 1759 
L 2194 1759 
z
M 3309 1997 
L 3309 0 
L 2731 0 
L 2731 519 
Q 2547 206 2267 57 
Q 1988 -91 1588 -91 
Q 1053 -91 734 211 
Q 416 513 416 1019 
Q 416 1603 808 1906 
Q 1200 2209 1959 2209 
L 2731 2209 
L 2731 2300 
Q 2728 2719 2518 2908 
Q 2309 3097 1850 3097 
Q 1556 3097 1256 3012 
Q 956 2928 672 2766 
L 672 3341 
Q 991 3463 1283 3523 
Q 1575 3584 1850 3584 
Q 2284 3584 2592 3456 
Q 2900 3328 3091 3072 
Q 3209 2916 3259 2686 
Q 3309 2456 3309 1997 
z
" transform="scale(0.015625)"/>
        <path id="DejaVuSansMono-6d" d="M 2113 3144 
Q 2219 3369 2383 3476 
Q 2547 3584 2778 3584 
Q 3200 3584 3373 3257 
Q 3547 2931 3547 2028 
L 3547 0 
L 3022 0 
L 3022 2003 
Q 3022 2744 2939 2923 
Q 2856 3103 2638 3103 
Q 2388 3103 2295 2911 
Q 2203 2719 2203 2003 
L 2203 0 
L 1678 0 
L 1678 2003 
Q 1678 2753 1589 2928 
Q 1500 3103 1269 3103 
Q 1041 3103 952 2911 
Q 863 2719 863 2003 
L 863 0 
L 341 0 
L 341 3500 
L 863 3500 
L 863 3200 
Q 966 3388 1120 3486 
Q 1275 3584 1472 3584 
Q 1709 3584 1867 3475 
Q 2025 3366 2113 3144 
z
" transform="scale(0.015625)"/>
        <path id="DejaVuSansMono-2d" d="M 1113 2009 
L 2741 2009 
L 2741 1497 
L 1113 1497 
L 1113 2009 
z
" transform="scale(0.015625)"/>
        <path id="DejaVuSansMono-37" d="M 434 4666 
L 3372 4666 
L 3372 4397 
L 1703 0 
L 1044 0 
L 2669 4134 
L 434 4134 
L 434 4666 
z
" transform="scale(0.015625)"/>
        <path id="DejaVuSansMono-62" d="M 2869 1747 
Q 2869 2416 2656 2756 
Q 2444 3097 2028 3097 
Q 1609 3097 1393 2755 
Q 1178 2413 1178 1747 
Q 1178 1084 1393 740 
Q 1609 397 2028 397 
Q 2444 397 2656 737 
Q 2869 1078 2869 1747 
z
M 1178 3053 
Q 1316 3309 1558 3446 
Q 1800 3584 2119 3584 
Q 2750 3584 3112 3098 
Q 3475 2613 3475 1759 
Q 3475 894 3111 401 
Q 2747 -91 2113 -91 
Q 1800 -91 1561 45 
Q 1322 181 1178 441 
L 1178 0 
L 603 0 
L 603 4863 
L 1178 4863 
L 1178 3053 
z
" transform="scale(0.015625)"/>
        <path id="DejaVuSansMono-68" d="M 3284 2169 
L 3284 0 
L 2706 0 
L 2706 2169 
Q 2706 2641 2540 2862 
Q 2375 3084 2022 3084 
Q 1619 3084 1401 2798 
Q 1184 2513 1184 1978 
L 1184 0 
L 609 0 
L 609 4863 
L 1184 4863 
L 1184 2975 
Q 1338 3275 1600 3429 
Q 1863 3584 2222 3584 
Q 2756 3584 3020 3232 
Q 3284 2881 3284 2169 
z
" transform="scale(0.015625)"/>
        <path id="DejaVuSansMono-66" d="M 3322 4863 
L 3322 4384 
L 2669 4384 
Q 2359 4384 2239 4257 
Q 2119 4131 2119 3809 
L 2119 3500 
L 3322 3500 
L 3322 3053 
L 2119 3053 
L 2119 0 
L 1544 0 
L 1544 3053 
L 609 3053 
L 609 3500 
L 1544 3500 
L 1544 3744 
Q 1544 4319 1808 4591 
Q 2072 4863 2631 4863 
L 3322 4863 
z
" transform="scale(0.015625)"/>
       </defs>
       <use xlink:href="#DejaVuSansMono-4c"/>
       <use xlink:href="#DejaVuSansMono-6c" x="60.205078"/>
       <use xlink:href="#DejaVuSansMono-61" x="120.410156"/>
       <use xlink:href="#DejaVuSansMono-6d" x="180.615234"/>
       <use xlink:href="#DejaVuSansMono-61" x="240.820312"/>
       <use xlink:href="#DejaVuSansMono-2d" x="301.025391"/>
       <use xlink:href="#DejaVuSansMono-32" x="361.230469"/>
       <use xlink:href="#DejaVuSansMono-2d" x="421.435547"/>
       <use xlink:href="#DejaVuSansMono-37" x="481.640625"/>
       <use xlink:href="#DejaVuSansMono-62" x="541.845703"/>
       <use xlink:href="#DejaVuSansMono-2d" x="602.050781"/>
       <use xlink:href="#DejaVuSansMono-68" x="662.255859"/>
       <use xlink:href="#DejaVuSansMono-66" x="722.460938"/>
      </g>
     </g>
    </g>
    <g id="xtick_3">
     <g id="text_3">
      <!-- Llama-2-7b-chat-hf -->
      <g transform="translate(216.804047 464.785) rotate(-90) scale(0.16 -0.16)">
       <defs>
        <path id="DejaVuSansMono-63" d="M 3316 178 
Q 3084 44 2839 -23 
Q 2594 -91 2338 -91 
Q 1525 -91 1067 396 
Q 609 884 609 1747 
Q 609 2609 1067 3096 
Q 1525 3584 2338 3584 
Q 2591 3584 2831 3518 
Q 3072 3453 3316 3316 
L 3316 2713 
Q 3088 2916 2858 3006 
Q 2628 3097 2338 3097 
Q 1797 3097 1506 2747 
Q 1216 2397 1216 1747 
Q 1216 1100 1508 748 
Q 1800 397 2338 397 
Q 2638 397 2875 489 
Q 3113 581 3316 775 
L 3316 178 
z
" transform="scale(0.015625)"/>
       </defs>
       <use xlink:href="#DejaVuSansMono-4c"/>
       <use xlink:href="#DejaVuSansMono-6c" x="60.205078"/>
       <use xlink:href="#DejaVuSansMono-61" x="120.410156"/>
       <use xlink:href="#DejaVuSansMono-6d" x="180.615234"/>
       <use xlink:href="#DejaVuSansMono-61" x="240.820312"/>
       <use xlink:href="#DejaVuSansMono-2d" x="301.025391"/>
       <use xlink:href="#DejaVuSansMono-32" x="361.230469"/>
       <use xlink:href="#DejaVuSansMono-2d" x="421.435547"/>
       <use xlink:href="#DejaVuSansMono-37" x="481.640625"/>
       <use xlink:href="#DejaVuSansMono-62" x="541.845703"/>
       <use xlink:href="#DejaVuSansMono-2d" x="602.050781"/>
       <use xlink:href="#DejaVuSansMono-63" x="662.255859"/>
       <use xlink:href="#DejaVuSansMono-68" x="722.460938"/>
       <use xlink:href="#DejaVuSansMono-61" x="782.666016"/>
       <use xlink:href="#DejaVuSansMono-74" x="842.871094"/>
       <use xlink:href="#DejaVuSansMono-2d" x="903.076172"/>
       <use xlink:href="#DejaVuSansMono-68" x="963.28125"/>
       <use xlink:href="#DejaVuSansMono-66" x="1023.486328"/>
      </g>
     </g>
    </g>
    <g id="xtick_4">
     <g id="text_4">
      <!-- Llama-2-13b-hf -->
      <g transform="translate(275.335516 426.255) rotate(-90) scale(0.16 -0.16)">
       <defs>
        <path id="DejaVuSansMono-31" d="M 844 531 
L 1825 531 
L 1825 4097 
L 769 3859 
L 769 4434 
L 1819 4666 
L 2450 4666 
L 2450 531 
L 3419 531 
L 3419 0 
L 844 0 
L 844 531 
z
" transform="scale(0.015625)"/>
        <path id="DejaVuSansMono-33" d="M 2425 2497 
Q 2884 2375 3128 2064 
Q 3372 1753 3372 1288 
Q 3372 644 2939 276 
Q 2506 -91 1741 -91 
Q 1419 -91 1084 -31 
Q 750 28 428 141 
L 428 769 
Q 747 603 1056 522 
Q 1366 441 1672 441 
Q 2191 441 2469 675 
Q 2747 909 2747 1350 
Q 2747 1756 2469 1995 
Q 2191 2234 1716 2234 
L 1234 2234 
L 1234 2753 
L 1716 2753 
Q 2150 2753 2394 2943 
Q 2638 3134 2638 3475 
Q 2638 3834 2411 4026 
Q 2184 4219 1766 4219 
Q 1488 4219 1191 4156 
Q 894 4094 569 3969 
L 569 4550 
Q 947 4650 1242 4700 
Q 1538 4750 1766 4750 
Q 2447 4750 2855 4408 
Q 3263 4066 3263 3500 
Q 3263 3116 3048 2859 
Q 2834 2603 2425 2497 
z
" transform="scale(0.015625)"/>
       </defs>
       <use xlink:href="#DejaVuSansMono-4c"/>
       <use xlink:href="#DejaVuSansMono-6c" x="60.205078"/>
       <use xlink:href="#DejaVuSansMono-61" x="120.410156"/>
       <use xlink:href="#DejaVuSansMono-6d" x="180.615234"/>
       <use xlink:href="#DejaVuSansMono-61" x="240.820312"/>
       <use xlink:href="#DejaVuSansMono-2d" x="301.025391"/>
       <use xlink:href="#DejaVuSansMono-32" x="361.230469"/>
       <use xlink:href="#DejaVuSansMono-2d" x="421.435547"/>
       <use xlink:href="#DejaVuSansMono-31" x="481.640625"/>
       <use xlink:href="#DejaVuSansMono-33" x="541.845703"/>
       <use xlink:href="#DejaVuSansMono-62" x="602.050781"/>
       <use xlink:href="#DejaVuSansMono-2d" x="662.255859"/>
       <use xlink:href="#DejaVuSansMono-68" x="722.460938"/>
       <use xlink:href="#DejaVuSansMono-66" x="782.666016"/>
      </g>
     </g>
    </g>
    <g id="xtick_5">
     <g id="text_5">
      <!-- Llama-2-13b-chat-hf -->
      <g transform="translate(333.866984 474.4175) rotate(-90) scale(0.16 -0.16)">
       <use xlink:href="#DejaVuSansMono-4c"/>
       <use xlink:href="#DejaVuSansMono-6c" x="60.205078"/>
       <use xlink:href="#DejaVuSansMono-61" x="120.410156"/>
       <use xlink:href="#DejaVuSansMono-6d" x="180.615234"/>
       <use xlink:href="#DejaVuSansMono-61" x="240.820312"/>
       <use xlink:href="#DejaVuSansMono-2d" x="301.025391"/>
       <use xlink:href="#DejaVuSansMono-32" x="361.230469"/>
       <use xlink:href="#DejaVuSansMono-2d" x="421.435547"/>
       <use xlink:href="#DejaVuSansMono-31" x="481.640625"/>
       <use xlink:href="#DejaVuSansMono-33" x="541.845703"/>
       <use xlink:href="#DejaVuSansMono-62" x="602.050781"/>
       <use xlink:href="#DejaVuSansMono-2d" x="662.255859"/>
       <use xlink:href="#DejaVuSansMono-63" x="722.460938"/>
       <use xlink:href="#DejaVuSansMono-68" x="782.666016"/>
       <use xlink:href="#DejaVuSansMono-61" x="842.871094"/>
       <use xlink:href="#DejaVuSansMono-74" x="903.076172"/>
       <use xlink:href="#DejaVuSansMono-2d" x="963.28125"/>
       <use xlink:href="#DejaVuSansMono-68" x="1023.486328"/>
       <use xlink:href="#DejaVuSansMono-66" x="1083.691406"/>
      </g>
     </g>
    </g>
    <g id="xtick_6">
     <g id="text_6">
      <!-- Meta-Llama-3-8B -->
      <g transform="translate(392.398453 435.8875) rotate(-90) scale(0.16 -0.16)">
       <defs>
        <path id="DejaVuSansMono-4d" d="M 269 4666 
L 1113 4666 
L 1919 2291 
L 2731 4666 
L 3578 4666 
L 3578 0 
L 2994 0 
L 2994 4122 
L 2163 1663 
L 1684 1663 
L 850 4122 
L 850 0 
L 269 0 
L 269 4666 
z
" transform="scale(0.015625)"/>
        <path id="DejaVuSansMono-65" d="M 3475 1894 
L 3475 1613 
L 984 1613 
L 984 1594 
Q 984 1022 1282 709 
Q 1581 397 2125 397 
Q 2400 397 2700 484 
Q 3000 572 3341 750 
L 3341 178 
Q 3013 44 2708 -23 
Q 2403 -91 2119 -91 
Q 1303 -91 843 398 
Q 384 888 384 1747 
Q 384 2584 834 3084 
Q 1284 3584 2034 3584 
Q 2703 3584 3089 3131 
Q 3475 2678 3475 1894 
z
M 2900 2063 
Q 2888 2569 2661 2833 
Q 2434 3097 2009 3097 
Q 1594 3097 1325 2822 
Q 1056 2547 1006 2059 
L 2900 2063 
z
" transform="scale(0.015625)"/>
        <path id="DejaVuSansMono-38" d="M 1925 2216 
Q 1503 2216 1273 1980 
Q 1044 1744 1044 1313 
Q 1044 881 1276 642 
Q 1509 403 1925 403 
Q 2350 403 2579 639 
Q 2809 875 2809 1313 
Q 2809 1741 2576 1978 
Q 2344 2216 1925 2216 
z
M 1375 2478 
Q 972 2581 745 2862 
Q 519 3144 519 3541 
Q 519 4097 897 4423 
Q 1275 4750 1925 4750 
Q 2578 4750 2956 4423 
Q 3334 4097 3334 3541 
Q 3334 3144 3107 2862 
Q 2881 2581 2478 2478 
Q 2947 2375 3195 2062 
Q 3444 1750 3444 1253 
Q 3444 622 3041 265 
Q 2638 -91 1925 -91 
Q 1213 -91 811 264 
Q 409 619 409 1247 
Q 409 1747 657 2061 
Q 906 2375 1375 2478 
z
M 1147 3481 
Q 1147 3106 1347 2909 
Q 1547 2713 1925 2713 
Q 2306 2713 2506 2909 
Q 2706 3106 2706 3481 
Q 2706 3863 2507 4063 
Q 2309 4263 1925 4263 
Q 1547 4263 1347 4061 
Q 1147 3859 1147 3481 
z
" transform="scale(0.015625)"/>
        <path id="DejaVuSansMono-42" d="M 1153 2228 
L 1153 519 
L 1900 519 
Q 2450 519 2684 711 
Q 2919 903 2919 1344 
Q 2919 1800 2672 2014 
Q 2425 2228 1900 2228 
L 1153 2228 
z
M 1153 4147 
L 1153 2741 
L 1888 2741 
Q 2344 2741 2548 2916 
Q 2753 3091 2753 3481 
Q 2753 3834 2551 3990 
Q 2350 4147 1888 4147 
L 1153 4147 
z
M 519 4666 
L 1900 4666 
Q 2616 4666 3003 4356 
Q 3391 4047 3391 3481 
Q 3391 3053 3186 2806 
Q 2981 2559 2572 2497 
Q 3031 2428 3292 2104 
Q 3553 1781 3553 1281 
Q 3553 647 3137 323 
Q 2722 0 1900 0 
L 519 0 
L 519 4666 
z
" transform="scale(0.015625)"/>
       </defs>
       <use xlink:href="#DejaVuSansMono-4d"/>
       <use xlink:href="#DejaVuSansMono-65" x="60.205078"/>
       <use xlink:href="#DejaVuSansMono-74" x="120.410156"/>
       <use xlink:href="#DejaVuSansMono-61" x="180.615234"/>
       <use xlink:href="#DejaVuSansMono-2d" x="240.820312"/>
       <use xlink:href="#DejaVuSansMono-4c" x="301.025391"/>
       <use xlink:href="#DejaVuSansMono-6c" x="361.230469"/>
       <use xlink:href="#DejaVuSansMono-61" x="421.435547"/>
       <use xlink:href="#DejaVuSansMono-6d" x="481.640625"/>
       <use xlink:href="#DejaVuSansMono-61" x="541.845703"/>
       <use xlink:href="#DejaVuSansMono-2d" x="602.050781"/>
       <use xlink:href="#DejaVuSansMono-33" x="662.255859"/>
       <use xlink:href="#DejaVuSansMono-2d" x="722.460938"/>
       <use xlink:href="#DejaVuSansMono-38" x="782.666016"/>
       <use xlink:href="#DejaVuSansMono-42" x="842.871094"/>
      </g>
     </g>
    </g>
    <g id="xtick_7">
     <g id="text_7">
      <!-- Meta-Llama-3-8B-Instruct -->
      <g transform="translate(450.929921 522.58) rotate(-90) scale(0.16 -0.16)">
       <defs>
        <path id="DejaVuSansMono-49" d="M 628 4666 
L 3219 4666 
L 3219 4134 
L 2241 4134 
L 2241 531 
L 3219 531 
L 3219 0 
L 628 0 
L 628 531 
L 1606 531 
L 1606 4134 
L 628 4134 
L 628 4666 
z
" transform="scale(0.015625)"/>
        <path id="DejaVuSansMono-6e" d="M 3284 2169 
L 3284 0 
L 2706 0 
L 2706 2169 
Q 2706 2641 2540 2862 
Q 2375 3084 2022 3084 
Q 1619 3084 1401 2798 
Q 1184 2513 1184 1978 
L 1184 0 
L 609 0 
L 609 3500 
L 1184 3500 
L 1184 2975 
Q 1338 3275 1600 3429 
Q 1863 3584 2222 3584 
Q 2756 3584 3020 3232 
Q 3284 2881 3284 2169 
z
" transform="scale(0.015625)"/>
        <path id="DejaVuSansMono-73" d="M 3041 3378 
L 3041 2816 
Q 2794 2959 2544 3031 
Q 2294 3103 2034 3103 
Q 1644 3103 1451 2976 
Q 1259 2850 1259 2591 
Q 1259 2356 1403 2240 
Q 1547 2125 2119 2016 
L 2350 1972 
Q 2778 1891 2998 1647 
Q 3219 1403 3219 1013 
Q 3219 494 2850 201 
Q 2481 -91 1825 -91 
Q 1566 -91 1281 -36 
Q 997 19 666 128 
L 666 722 
Q 988 556 1281 473 
Q 1575 391 1838 391 
Q 2219 391 2428 545 
Q 2638 700 2638 978 
Q 2638 1378 1872 1531 
L 1847 1538 
L 1631 1581 
Q 1134 1678 906 1908 
Q 678 2138 678 2534 
Q 678 3038 1018 3311 
Q 1359 3584 1991 3584 
Q 2272 3584 2531 3532 
Q 2791 3481 3041 3378 
z
" transform="scale(0.015625)"/>
        <path id="DejaVuSansMono-72" d="M 3609 2778 
Q 3425 2922 3234 2987 
Q 3044 3053 2816 3053 
Q 2278 3053 1993 2715 
Q 1709 2378 1709 1741 
L 1709 0 
L 1131 0 
L 1131 3500 
L 1709 3500 
L 1709 2816 
Q 1853 3188 2151 3386 
Q 2450 3584 2859 3584 
Q 3072 3584 3256 3531 
Q 3441 3478 3609 3366 
L 3609 2778 
z
" transform="scale(0.015625)"/>
        <path id="DejaVuSansMono-75" d="M 609 1325 
L 609 3494 
L 1184 3494 
L 1184 1325 
Q 1184 853 1351 631 
Q 1519 409 1869 409 
Q 2275 409 2490 695 
Q 2706 981 2706 1516 
L 2706 3494 
L 3284 3494 
L 3284 0 
L 2706 0 
L 2706 525 
Q 2553 222 2289 65 
Q 2025 -91 1672 -91 
Q 1134 -91 871 261 
Q 609 613 609 1325 
z
" transform="scale(0.015625)"/>
       </defs>
       <use xlink:href="#DejaVuSansMono-4d"/>
       <use xlink:href="#DejaVuSansMono-65" x="60.205078"/>
       <use xlink:href="#DejaVuSansMono-74" x="120.410156"/>
       <use xlink:href="#DejaVuSansMono-61" x="180.615234"/>
       <use xlink:href="#DejaVuSansMono-2d" x="240.820312"/>
       <use xlink:href="#DejaVuSansMono-4c" x="301.025391"/>
       <use xlink:href="#DejaVuSansMono-6c" x="361.230469"/>
       <use xlink:href="#DejaVuSansMono-61" x="421.435547"/>
       <use xlink:href="#DejaVuSansMono-6d" x="481.640625"/>
       <use xlink:href="#DejaVuSansMono-61" x="541.845703"/>
       <use xlink:href="#DejaVuSansMono-2d" x="602.050781"/>
       <use xlink:href="#DejaVuSansMono-33" x="662.255859"/>
       <use xlink:href="#DejaVuSansMono-2d" x="722.460938"/>
       <use xlink:href="#DejaVuSansMono-38" x="782.666016"/>
       <use xlink:href="#DejaVuSansMono-42" x="842.871094"/>
       <use xlink:href="#DejaVuSansMono-2d" x="903.076172"/>
       <use xlink:href="#DejaVuSansMono-49" x="963.28125"/>
       <use xlink:href="#DejaVuSansMono-6e" x="1023.486328"/>
       <use xlink:href="#DejaVuSansMono-73" x="1083.691406"/>
       <use xlink:href="#DejaVuSansMono-74" x="1143.896484"/>
       <use xlink:href="#DejaVuSansMono-72" x="1204.101562"/>
       <use xlink:href="#DejaVuSansMono-75" x="1264.306641"/>
       <use xlink:href="#DejaVuSansMono-63" x="1324.511719"/>
       <use xlink:href="#DejaVuSansMono-74" x="1384.716797"/>
      </g>
     </g>
    </g>
    <g id="xtick_8">
     <g id="text_8">
      <!-- Mistral-7B-Instruct-v0.2 -->
      <g transform="translate(509.46139 522.58) rotate(-90) scale(0.16 -0.16)">
       <defs>
        <path id="DejaVuSansMono-69" d="M 800 3500 
L 2272 3500 
L 2272 447 
L 3413 447 
L 3413 0 
L 556 0 
L 556 447 
L 1697 447 
L 1697 3053 
L 800 3053 
L 800 3500 
z
M 1697 4863 
L 2272 4863 
L 2272 4134 
L 1697 4134 
L 1697 4863 
z
" transform="scale(0.015625)"/>
        <path id="DejaVuSansMono-76" d="M 313 3500 
L 909 3500 
L 1925 563 
L 2944 3500 
L 3541 3500 
L 2297 0 
L 1556 0 
L 313 3500 
z
" transform="scale(0.015625)"/>
        <path id="DejaVuSansMono-30" d="M 1509 2344 
Q 1509 2516 1629 2641 
Q 1750 2766 1919 2766 
Q 2094 2766 2219 2641 
Q 2344 2516 2344 2344 
Q 2344 2169 2220 2047 
Q 2097 1925 1919 1925 
Q 1744 1925 1626 2044 
Q 1509 2163 1509 2344 
z
M 1925 4250 
Q 1484 4250 1267 3775 
Q 1050 3300 1050 2328 
Q 1050 1359 1267 884 
Q 1484 409 1925 409 
Q 2369 409 2586 884 
Q 2803 1359 2803 2328 
Q 2803 3300 2586 3775 
Q 2369 4250 1925 4250 
z
M 1925 4750 
Q 2672 4750 3055 4137 
Q 3438 3525 3438 2328 
Q 3438 1134 3055 521 
Q 2672 -91 1925 -91 
Q 1178 -91 797 521 
Q 416 1134 416 2328 
Q 416 3525 797 4137 
Q 1178 4750 1925 4750 
z
" transform="scale(0.015625)"/>
        <path id="DejaVuSansMono-2e" d="M 1528 953 
L 2316 953 
L 2316 0 
L 1528 0 
L 1528 953 
z
" transform="scale(0.015625)"/>
       </defs>
       <use xlink:href="#DejaVuSansMono-4d"/>
       <use xlink:href="#DejaVuSansMono-69" x="60.205078"/>
       <use xlink:href="#DejaVuSansMono-73" x="120.410156"/>
       <use xlink:href="#DejaVuSansMono-74" x="180.615234"/>
       <use xlink:href="#DejaVuSansMono-72" x="240.820312"/>
       <use xlink:href="#DejaVuSansMono-61" x="301.025391"/>
       <use xlink:href="#DejaVuSansMono-6c" x="361.230469"/>
       <use xlink:href="#DejaVuSansMono-2d" x="421.435547"/>
       <use xlink:href="#DejaVuSansMono-37" x="481.640625"/>
       <use xlink:href="#DejaVuSansMono-42" x="541.845703"/>
       <use xlink:href="#DejaVuSansMono-2d" x="602.050781"/>
       <use xlink:href="#DejaVuSansMono-49" x="662.255859"/>
       <use xlink:href="#DejaVuSansMono-6e" x="722.460938"/>
       <use xlink:href="#DejaVuSansMono-73" x="782.666016"/>
       <use xlink:href="#DejaVuSansMono-74" x="842.871094"/>
       <use xlink:href="#DejaVuSansMono-72" x="903.076172"/>
       <use xlink:href="#DejaVuSansMono-75" x="963.28125"/>
       <use xlink:href="#DejaVuSansMono-63" x="1023.486328"/>
       <use xlink:href="#DejaVuSansMono-74" x="1083.691406"/>
       <use xlink:href="#DejaVuSansMono-2d" x="1143.896484"/>
       <use xlink:href="#DejaVuSansMono-76" x="1204.101562"/>
       <use xlink:href="#DejaVuSansMono-30" x="1264.306641"/>
       <use xlink:href="#DejaVuSansMono-2e" x="1324.511719"/>
       <use xlink:href="#DejaVuSansMono-32" x="1384.716797"/>
      </g>
     </g>
    </g>
    <g id="text_9">
     <!-- Model -->
     <g transform="translate(292.877969 534.231562) scale(0.1 -0.1)">
      <defs>
       <path id="DejaVuSansMono-6f" d="M 1925 3097 
Q 1488 3097 1263 2756 
Q 1038 2416 1038 1747 
Q 1038 1081 1263 739 
Q 1488 397 1925 397 
Q 2366 397 2591 739 
Q 2816 1081 2816 1747 
Q 2816 2416 2591 2756 
Q 2366 3097 1925 3097 
z
M 1925 3584 
Q 2653 3584 3039 3112 
Q 3425 2641 3425 1747 
Q 3425 850 3040 379 
Q 2656 -91 1925 -91 
Q 1197 -91 812 379 
Q 428 850 428 1747 
Q 428 2641 812 3112 
Q 1197 3584 1925 3584 
z
" transform="scale(0.015625)"/>
       <path id="DejaVuSansMono-64" d="M 2681 3053 
L 2681 4863 
L 3256 4863 
L 3256 0 
L 2681 0 
L 2681 441 
Q 2538 181 2298 45 
Q 2059 -91 1747 -91 
Q 1113 -91 748 401 
Q 384 894 384 1759 
Q 384 2613 750 3098 
Q 1116 3584 1747 3584 
Q 2063 3584 2303 3448 
Q 2544 3313 2681 3053 
z
M 991 1747 
Q 991 1078 1203 737 
Q 1416 397 1831 397 
Q 2247 397 2464 740 
Q 2681 1084 2681 1747 
Q 2681 2413 2464 2755 
Q 2247 3097 1831 3097 
Q 1416 3097 1203 2756 
Q 991 2416 991 1747 
z
" transform="scale(0.015625)"/>
      </defs>
      <use xlink:href="#DejaVuSansMono-4d"/>
      <use xlink:href="#DejaVuSansMono-6f" x="60.205078"/>
      <use xlink:href="#DejaVuSansMono-64" x="120.410156"/>
      <use xlink:href="#DejaVuSansMono-65" x="180.615234"/>
      <use xlink:href="#DejaVuSansMono-6c" x="240.820312"/>
     </g>
    </g>
   </g>
   <g id="matplotlib.axis_2">
    <g id="ytick_1">
     <g id="line2d_1">
      <path d="M 56.82875 284.4 
L 559.02875 284.4 
" clip-path="url(#pbde0346a27)" style="fill: none; stroke: #b0b0b0; stroke-width: 0.8; stroke-linecap: square"/>
     </g>
     <g id="text_10">
      <!-- 0.0 -->
      <g transform="translate(20.93125 290.52125) scale(0.16 -0.16)">
       <use xlink:href="#DejaVuSansMono-30"/>
       <use xlink:href="#DejaVuSansMono-2e" x="60.205078"/>
       <use xlink:href="#DejaVuSansMono-30" x="120.410156"/>
      </g>
     </g>
    </g>
    <g id="ytick_2">
     <g id="line2d_2">
      <path d="M 56.82875 231.521241 
L 559.02875 231.521241 
" clip-path="url(#pbde0346a27)" style="fill: none; stroke: #b0b0b0; stroke-width: 0.8; stroke-linecap: square"/>
     </g>
     <g id="text_11">
      <!-- 0.1 -->
      <g transform="translate(20.93125 237.642491) scale(0.16 -0.16)">
       <use xlink:href="#DejaVuSansMono-30"/>
       <use xlink:href="#DejaVuSansMono-2e" x="60.205078"/>
       <use xlink:href="#DejaVuSansMono-31" x="120.410156"/>
      </g>
     </g>
    </g>
    <g id="ytick_3">
     <g id="line2d_3">
      <path d="M 56.82875 178.642482 
L 559.02875 178.642482 
" clip-path="url(#pbde0346a27)" style="fill: none; stroke: #b0b0b0; stroke-width: 0.8; stroke-linecap: square"/>
     </g>
     <g id="text_12">
      <!-- 0.2 -->
      <g transform="translate(20.93125 184.763732) scale(0.16 -0.16)">
       <use xlink:href="#DejaVuSansMono-30"/>
       <use xlink:href="#DejaVuSansMono-2e" x="60.205078"/>
       <use xlink:href="#DejaVuSansMono-32" x="120.410156"/>
      </g>
     </g>
    </g>
    <g id="ytick_4">
     <g id="line2d_4">
      <path d="M 56.82875 125.763723 
L 559.02875 125.763723 
" clip-path="url(#pbde0346a27)" style="fill: none; stroke: #b0b0b0; stroke-width: 0.8; stroke-linecap: square"/>
     </g>
     <g id="text_13">
      <!-- 0.3 -->
      <g transform="translate(20.93125 131.884973) scale(0.16 -0.16)">
       <use xlink:href="#DejaVuSansMono-30"/>
       <use xlink:href="#DejaVuSansMono-2e" x="60.205078"/>
       <use xlink:href="#DejaVuSansMono-33" x="120.410156"/>
      </g>
     </g>
    </g>
    <g id="ytick_5">
     <g id="line2d_5">
      <path d="M 56.82875 72.884964 
L 559.02875 72.884964 
" clip-path="url(#pbde0346a27)" style="fill: none; stroke: #b0b0b0; stroke-width: 0.8; stroke-linecap: square"/>
     </g>
     <g id="text_14">
      <!-- 0.4 -->
      <g transform="translate(20.93125 79.006214) scale(0.16 -0.16)">
       <defs>
        <path id="DejaVuSansMono-34" d="M 2297 4091 
L 825 1625 
L 2297 1625 
L 2297 4091 
z
M 2194 4666 
L 2925 4666 
L 2925 1625 
L 3547 1625 
L 3547 1113 
L 2925 1113 
L 2925 0 
L 2297 0 
L 2297 1113 
L 319 1113 
L 319 1709 
L 2194 4666 
z
" transform="scale(0.015625)"/>
       </defs>
       <use xlink:href="#DejaVuSansMono-30"/>
       <use xlink:href="#DejaVuSansMono-2e" x="60.205078"/>
       <use xlink:href="#DejaVuSansMono-34" x="120.410156"/>
      </g>
     </g>
    </g>
    <g id="ytick_6">
     <g id="line2d_6">
      <path d="M 56.82875 20.006205 
L 559.02875 20.006205 
" clip-path="url(#pbde0346a27)" style="fill: none; stroke: #b0b0b0; stroke-width: 0.8; stroke-linecap: square"/>
     </g>
     <g id="text_15">
      <!-- 0.5 -->
      <g transform="translate(20.93125 26.127455) scale(0.16 -0.16)">
       <defs>
        <path id="DejaVuSansMono-35" d="M 647 4666 
L 3009 4666 
L 3009 4134 
L 1222 4134 
L 1222 2988 
Q 1356 3038 1492 3061 
Q 1628 3084 1766 3084 
Q 2491 3084 2916 2656 
Q 3341 2228 3341 1497 
Q 3341 759 2895 334 
Q 2450 -91 1678 -91 
Q 1306 -91 998 -41 
Q 691 9 447 109 
L 447 750 
Q 734 594 1025 517 
Q 1316 441 1619 441 
Q 2141 441 2423 716 
Q 2706 991 2706 1497 
Q 2706 1997 2414 2275 
Q 2122 2553 1600 2553 
Q 1347 2553 1106 2495 
Q 866 2438 647 2322 
L 647 4666 
z
" transform="scale(0.015625)"/>
       </defs>
       <use xlink:href="#DejaVuSansMono-30"/>
       <use xlink:href="#DejaVuSansMono-2e" x="60.205078"/>
       <use xlink:href="#DejaVuSansMono-35" x="120.410156"/>
      </g>
     </g>
    </g>
    <g id="text_16">
     <!-- MMLU Top 1 Accuracy -->
     <g transform="translate(14.851563 202.992969) rotate(-90) scale(0.1 -0.1)">
      <defs>
       <path id="DejaVuSansMono-55" d="M 459 1791 
L 459 4666 
L 1094 4666 
L 1094 1503 
Q 1094 1163 1112 1017 
Q 1131 872 1178 794 
Q 1278 609 1467 515 
Q 1656 422 1925 422 
Q 2197 422 2384 515 
Q 2572 609 2675 794 
Q 2722 872 2740 1015 
Q 2759 1159 2759 1497 
L 2759 4666 
L 3391 4666 
L 3391 1791 
Q 3391 1075 3302 773 
Q 3213 472 2994 275 
Q 2788 91 2522 0 
Q 2256 -91 1925 -91 
Q 1597 -91 1331 0 
Q 1066 91 856 275 
Q 641 469 550 776 
Q 459 1084 459 1791 
z
" transform="scale(0.015625)"/>
       <path id="DejaVuSansMono-20" transform="scale(0.015625)"/>
       <path id="DejaVuSansMono-54" d="M 147 4666 
L 3706 4666 
L 3706 4134 
L 2247 4134 
L 2247 0 
L 1613 0 
L 1613 4134 
L 147 4134 
L 147 4666 
z
" transform="scale(0.015625)"/>
       <path id="DejaVuSansMono-41" d="M 1925 4109 
L 1259 1722 
L 2591 1722 
L 1925 4109 
z
M 1544 4666 
L 2309 4666 
L 3738 0 
L 3084 0 
L 2741 1216 
L 1106 1216 
L 769 0 
L 116 0 
L 1544 4666 
z
" transform="scale(0.015625)"/>
       <path id="DejaVuSansMono-79" d="M 2681 1125 
Q 2538 759 2316 163 
Q 2006 -663 1900 -844 
Q 1756 -1088 1540 -1209 
Q 1325 -1331 1038 -1331 
L 575 -1331 
L 575 -850 
L 916 -850 
Q 1169 -850 1312 -703 
Q 1456 -556 1678 56 
L 325 3500 
L 934 3500 
L 1972 763 
L 2994 3500 
L 3603 3500 
L 2681 1125 
z
" transform="scale(0.015625)"/>
      </defs>
      <use xlink:href="#DejaVuSansMono-4d"/>
      <use xlink:href="#DejaVuSansMono-4d" x="60.205078"/>
      <use xlink:href="#DejaVuSansMono-4c" x="120.410156"/>
      <use xlink:href="#DejaVuSansMono-55" x="180.615234"/>
      <use xlink:href="#DejaVuSansMono-20" x="240.820312"/>
      <use xlink:href="#DejaVuSansMono-54" x="301.025391"/>
      <use xlink:href="#DejaVuSansMono-6f" x="361.230469"/>
      <use xlink:href="#DejaVuSansMono-70" x="421.435547"/>
      <use xlink:href="#DejaVuSansMono-20" x="481.640625"/>
      <use xlink:href="#DejaVuSansMono-31" x="541.845703"/>
      <use xlink:href="#DejaVuSansMono-20" x="602.050781"/>
      <use xlink:href="#DejaVuSansMono-41" x="662.255859"/>
      <use xlink:href="#DejaVuSansMono-63" x="722.460938"/>
      <use xlink:href="#DejaVuSansMono-63" x="782.666016"/>
      <use xlink:href="#DejaVuSansMono-75" x="842.871094"/>
      <use xlink:href="#DejaVuSansMono-72" x="903.076172"/>
      <use xlink:href="#DejaVuSansMono-61" x="963.28125"/>
      <use xlink:href="#DejaVuSansMono-63" x="1023.486328"/>
      <use xlink:href="#DejaVuSansMono-79" x="1083.691406"/>
     </g>
    </g>
   </g>
   <g id="line2d_7">
    <path clip-path="url(#pbde0346a27)" style="fill: none; stroke: #424242; stroke-width: 2.25; stroke-linecap: square"/>
   </g>
   <g id="line2d_8">
    <path clip-path="url(#pbde0346a27)" style="fill: none; stroke: #424242; stroke-width: 2.25; stroke-linecap: square"/>
   </g>
   <g id="line2d_9">
    <path clip-path="url(#pbde0346a27)" style="fill: none; stroke: #424242; stroke-width: 2.25; stroke-linecap: square"/>
   </g>
   <g id="line2d_10">
    <path clip-path="url(#pbde0346a27)" style="fill: none; stroke: #424242; stroke-width: 2.25; stroke-linecap: square"/>
   </g>
   <g id="line2d_11">
    <path clip-path="url(#pbde0346a27)" style="fill: none; stroke: #424242; stroke-width: 2.25; stroke-linecap: square"/>
   </g>
   <g id="line2d_12">
    <path clip-path="url(#pbde0346a27)" style="fill: none; stroke: #424242; stroke-width: 2.25; stroke-linecap: square"/>
   </g>
   <g id="line2d_13">
    <path clip-path="url(#pbde0346a27)" style="fill: none; stroke: #424242; stroke-width: 2.25; stroke-linecap: square"/>
   </g>
   <g id="line2d_14">
    <path clip-path="url(#pbde0346a27)" style="fill: none; stroke: #424242; stroke-width: 2.25; stroke-linecap: square"/>
   </g>
   <g id="line2d_15">
    <path clip-path="url(#pbde0346a27)" style="fill: none; stroke: #424242; stroke-width: 2.25; stroke-linecap: square"/>
   </g>
   <g id="line2d_16">
    <path clip-path="url(#pbde0346a27)" style="fill: none; stroke: #424242; stroke-width: 2.25; stroke-linecap: square"/>
   </g>
   <g id="line2d_17">
    <path clip-path="url(#pbde0346a27)" style="fill: none; stroke: #424242; stroke-width: 2.25; stroke-linecap: square"/>
   </g>
   <g id="line2d_18">
    <path clip-path="url(#pbde0346a27)" style="fill: none; stroke: #424242; stroke-width: 2.25; stroke-linecap: square"/>
   </g>
   <g id="line2d_19">
    <path clip-path="url(#pbde0346a27)" style="fill: none; stroke: #424242; stroke-width: 2.25; stroke-linecap: square"/>
   </g>
   <g id="line2d_20">
    <path clip-path="url(#pbde0346a27)" style="fill: none; stroke: #424242; stroke-width: 2.25; stroke-linecap: square"/>
   </g>
   <g id="line2d_21">
    <path clip-path="url(#pbde0346a27)" style="fill: none; stroke: #424242; stroke-width: 2.25; stroke-linecap: square"/>
   </g>
   <g id="line2d_22">
    <path clip-path="url(#pbde0346a27)" style="fill: none; stroke: #424242; stroke-width: 2.25; stroke-linecap: square"/>
   </g>
   <g id="LineCollection_1">
    <path d="M 91.362316 199.132596 
L 91.362316 100.248344 
" clip-path="url(#pbde0346a27)" style="fill: none; stroke: #000000; stroke-width: 1.5"/>
    <path d="M 149.893785 191.285786 
L 149.893785 90.139355 
" clip-path="url(#pbde0346a27)" style="fill: none; stroke: #000000; stroke-width: 1.5"/>
    <path d="M 208.425253 196.029527 
L 208.425253 64.80655 
" clip-path="url(#pbde0346a27)" style="fill: none; stroke: #000000; stroke-width: 1.5"/>
    <path d="M 266.956722 186.492173 
L 266.956722 64.907289 
" clip-path="url(#pbde0346a27)" style="fill: none; stroke: #000000; stroke-width: 1.5"/>
    <path d="M 325.488191 176.411311 
L 325.488191 30.938944 
" clip-path="url(#pbde0346a27)" style="fill: none; stroke: #000000; stroke-width: 1.5"/>
    <path d="M 384.019659 171.134082 
L 384.019659 44.429835 
" clip-path="url(#pbde0346a27)" style="fill: none; stroke: #000000; stroke-width: 1.5"/>
    <path d="M 442.551128 153.030072 
L 442.551128 20.4 
" clip-path="url(#pbde0346a27)" style="fill: none; stroke: #000000; stroke-width: 1.5"/>
    <path d="M 501.082596 179.178043 
L 501.082596 54.108831 
" clip-path="url(#pbde0346a27)" style="fill: none; stroke: #000000; stroke-width: 1.5"/>
   </g>
   <g id="line2d_23">
    <defs>
     <path id="mbae599bda1" d="M 10 0 
L -10 -0 
" style="stroke: #000000"/>
    </defs>
    <g clip-path="url(#pbde0346a27)">
     <use xlink:href="#mbae599bda1" x="91.362316" y="199.132596" style="stroke: #000000"/>
     <use xlink:href="#mbae599bda1" x="149.893785" y="191.285786" style="stroke: #000000"/>
     <use xlink:href="#mbae599bda1" x="208.425253" y="196.029527" style="stroke: #000000"/>
     <use xlink:href="#mbae599bda1" x="266.956722" y="186.492173" style="stroke: #000000"/>
     <use xlink:href="#mbae599bda1" x="325.488191" y="176.411311" style="stroke: #000000"/>
     <use xlink:href="#mbae599bda1" x="384.019659" y="171.134082" style="stroke: #000000"/>
     <use xlink:href="#mbae599bda1" x="442.551128" y="153.030072" style="stroke: #000000"/>
     <use xlink:href="#mbae599bda1" x="501.082596" y="179.178043" style="stroke: #000000"/>
    </g>
   </g>
   <g id="line2d_24">
    <g clip-path="url(#pbde0346a27)">
     <use xlink:href="#mbae599bda1" x="91.362316" y="100.248344" style="stroke: #000000"/>
     <use xlink:href="#mbae599bda1" x="149.893785" y="90.139355" style="stroke: #000000"/>
     <use xlink:href="#mbae599bda1" x="208.425253" y="64.80655" style="stroke: #000000"/>
     <use xlink:href="#mbae599bda1" x="266.956722" y="64.907289" style="stroke: #000000"/>
     <use xlink:href="#mbae599bda1" x="325.488191" y="30.938944" style="stroke: #000000"/>
     <use xlink:href="#mbae599bda1" x="384.019659" y="44.429835" style="stroke: #000000"/>
     <use xlink:href="#mbae599bda1" x="442.551128" y="20.4" style="stroke: #000000"/>
     <use xlink:href="#mbae599bda1" x="501.082596" y="54.108831" style="stroke: #000000"/>
    </g>
   </g>
   <g id="LineCollection_2">
    <path d="M 114.774904 147.25889 
L 114.774904 147.25889 
" clip-path="url(#pbde0346a27)" style="fill: none; stroke: #000000; stroke-width: 1.5"/>
    <path d="M 173.306372 145.026168 
L 173.306372 145.026168 
" clip-path="url(#pbde0346a27)" style="fill: none; stroke: #000000; stroke-width: 1.5"/>
    <path d="M 231.837841 139.234582 
L 231.837841 139.234582 
" clip-path="url(#pbde0346a27)" style="fill: none; stroke: #000000; stroke-width: 1.5"/>
    <path d="M 290.369309 134.018697 
L 290.369309 134.018697 
" clip-path="url(#pbde0346a27)" style="fill: none; stroke: #000000; stroke-width: 1.5"/>
    <path d="M 348.900778 129.854204 
L 348.900778 129.854204 
" clip-path="url(#pbde0346a27)" style="fill: none; stroke: #000000; stroke-width: 1.5"/>
    <path d="M 407.432247 133.592083 
L 407.432247 133.592083 
" clip-path="url(#pbde0346a27)" style="fill: none; stroke: #000000; stroke-width: 1.5"/>
    <path d="M 465.963715 130.505012 
L 465.963715 130.505012 
" clip-path="url(#pbde0346a27)" style="fill: none; stroke: #000000; stroke-width: 1.5"/>
    <path d="M 524.495184 139.010979 
L 524.495184 139.010979 
" clip-path="url(#pbde0346a27)" style="fill: none; stroke: #000000; stroke-width: 1.5"/>
   </g>
   <g id="line2d_25">
    <g clip-path="url(#pbde0346a27)">
     <use xlink:href="#mbae599bda1" x="114.774904" y="147.25889" style="stroke: #000000"/>
     <use xlink:href="#mbae599bda1" x="173.306372" y="145.026168" style="stroke: #000000"/>
     <use xlink:href="#mbae599bda1" x="231.837841" y="139.234582" style="stroke: #000000"/>
     <use xlink:href="#mbae599bda1" x="290.369309" y="134.018697" style="stroke: #000000"/>
     <use xlink:href="#mbae599bda1" x="348.900778" y="129.854204" style="stroke: #000000"/>
     <use xlink:href="#mbae599bda1" x="407.432247" y="133.592083" style="stroke: #000000"/>
     <use xlink:href="#mbae599bda1" x="465.963715" y="130.505012" style="stroke: #000000"/>
     <use xlink:href="#mbae599bda1" x="524.495184" y="139.010979" style="stroke: #000000"/>
    </g>
   </g>
   <g id="line2d_26">
    <g clip-path="url(#pbde0346a27)">
     <use xlink:href="#mbae599bda1" x="114.774904" y="147.25889" style="stroke: #000000"/>
     <use xlink:href="#mbae599bda1" x="173.306372" y="145.026168" style="stroke: #000000"/>
     <use xlink:href="#mbae599bda1" x="231.837841" y="139.234582" style="stroke: #000000"/>
     <use xlink:href="#mbae599bda1" x="290.369309" y="134.018697" style="stroke: #000000"/>
     <use xlink:href="#mbae599bda1" x="348.900778" y="129.854204" style="stroke: #000000"/>
     <use xlink:href="#mbae599bda1" x="407.432247" y="133.592083" style="stroke: #000000"/>
     <use xlink:href="#mbae599bda1" x="465.963715" y="130.505012" style="stroke: #000000"/>
     <use xlink:href="#mbae599bda1" x="524.495184" y="139.010979" style="stroke: #000000"/>
    </g>
   </g>
   <g id="patch_21">
    <path d="M 56.82875 284.4 
L 559.02875 284.4 
" style="fill: none; stroke: #000000; stroke-width: 0.8; stroke-linejoin: miter; stroke-linecap: square"/>
   </g>
   <g id="legend_1">
    <g id="text_17">
     <!-- Order Independant -->
     <g transform="translate(469.38875 28.712188) scale(0.14 -0.14)">
      <defs>
       <path id="DejaVuSansMono-4f" d="M 2828 2328 
Q 2828 3356 2617 3797 
Q 2406 4238 1925 4238 
Q 1447 4238 1236 3797 
Q 1025 3356 1025 2328 
Q 1025 1303 1236 862 
Q 1447 422 1925 422 
Q 2406 422 2617 861 
Q 2828 1300 2828 2328 
z
M 3488 2328 
Q 3488 1109 3102 509 
Q 2716 -91 1925 -91 
Q 1134 -91 750 506 
Q 366 1103 366 2328 
Q 366 3550 752 4150 
Q 1138 4750 1925 4750 
Q 2716 4750 3102 4150 
Q 3488 3550 3488 2328 
z
" transform="scale(0.015625)"/>
      </defs>
      <use xlink:href="#DejaVuSansMono-4f"/>
      <use xlink:href="#DejaVuSansMono-72" x="60.205078"/>
      <use xlink:href="#DejaVuSansMono-64" x="120.410156"/>
      <use xlink:href="#DejaVuSansMono-65" x="180.615234"/>
      <use xlink:href="#DejaVuSansMono-72" x="240.820312"/>
      <use xlink:href="#DejaVuSansMono-20" x="301.025391"/>
      <use xlink:href="#DejaVuSansMono-49" x="361.230469"/>
      <use xlink:href="#DejaVuSansMono-6e" x="421.435547"/>
      <use xlink:href="#DejaVuSansMono-64" x="481.640625"/>
      <use xlink:href="#DejaVuSansMono-65" x="541.845703"/>
      <use xlink:href="#DejaVuSansMono-70" x="602.050781"/>
      <use xlink:href="#DejaVuSansMono-65" x="662.255859"/>
      <use xlink:href="#DejaVuSansMono-6e" x="722.460938"/>
      <use xlink:href="#DejaVuSansMono-64" x="782.666016"/>
      <use xlink:href="#DejaVuSansMono-61" x="842.871094"/>
      <use xlink:href="#DejaVuSansMono-6e" x="903.076172"/>
      <use xlink:href="#DejaVuSansMono-74" x="963.28125"/>
     </g>
    </g>
    <g id="patch_22">
     <path d="M 513.393906 46.805625 
L 537.393906 46.805625 
L 537.393906 38.405625 
L 513.393906 38.405625 
z
" style="fill: #3274a1"/>
    </g>
    <g id="text_18">
     <!-- No -->
     <g transform="translate(546.993906 46.805625) scale(0.12 -0.12)">
      <defs>
       <path id="DejaVuSansMono-4e" d="M 434 4666 
L 1234 4666 
L 2809 825 
L 2809 4666 
L 3419 4666 
L 3419 0 
L 2619 0 
L 1044 3841 
L 1044 0 
L 434 0 
L 434 4666 
z
" transform="scale(0.015625)"/>
      </defs>
      <use xlink:href="#DejaVuSansMono-4e"/>
      <use xlink:href="#DejaVuSansMono-6f" x="60.205078"/>
     </g>
    </g>
    <g id="patch_23">
     <path d="M 513.393906 64.483125 
L 537.393906 64.483125 
L 537.393906 56.083125 
L 513.393906 56.083125 
z
" style="fill: #e1812c"/>
    </g>
    <g id="text_19">
     <!-- Yes -->
     <g transform="translate(546.993906 64.483125) scale(0.12 -0.12)">
      <defs>
       <path id="DejaVuSansMono-59" d="M 116 4666 
L 788 4666 
L 1925 2606 
L 3059 4666 
L 3738 4666 
L 2241 2094 
L 2241 0 
L 1606 0 
L 1606 2094 
L 116 4666 
z
" transform="scale(0.015625)"/>
      </defs>
      <use xlink:href="#DejaVuSansMono-59"/>
      <use xlink:href="#DejaVuSansMono-65" x="60.205078"/>
      <use xlink:href="#DejaVuSansMono-73" x="120.410156"/>
     </g>
    </g>
   </g>
  </g>
 </g>
 <defs>
  <clipPath id="pbde0346a27">
   <rect x="56.82875" y="7.2" width="502.2" height="277.2"/>
  </clipPath>
 </defs>
</svg>
